if (_typeface_js && _typeface_js.loadFace) _typeface_js.loadFace({"glyphs":{"S":{"x_min":18.0625,"x_max":640.328125,"ha":678,"o":"m 333 -13 q 450 11 394 -13 q 547 77 505 35 q 615 174 590 118 q 640 291 640 230 q 620 379 640 339 q 569 450 601 418 q 496 505 537 481 q 411 545 455 528 q 375 557 394 552 q 336 570 355 563 q 276 596 306 581 q 220 630 245 610 q 180 679 195 650 q 165 745 165 707 q 182 811 165 782 q 227 859 200 839 q 286 890 254 880 q 350 900 319 900 q 414 890 386 900 q 466 869 443 880 q 487 857 477 863 q 506 848 497 852 q 537 839 525 839 q 563 848 552 839 q 575 874 575 857 q 548 922 575 902 q 485 955 522 942 q 411 975 448 969 q 352 981 373 981 q 245 963 297 981 q 154 912 194 945 q 90 833 115 880 q 66 730 66 787 q 85 637 66 675 q 135 573 104 599 q 208 528 166 546 q 294 493 250 509 q 339 479 318 487 q 381 463 361 471 q 441 437 412 452 q 492 403 469 423 q 529 355 515 382 q 543 289 543 327 q 525 202 543 243 q 478 132 508 162 q 408 84 448 102 q 322 67 368 67 q 236 82 273 67 q 156 113 200 96 q 100 134 129 124 q 44 157 72 145 l 18 70 q 93 43 50 57 q 180 16 136 28 q 265 -4 225 3 q 333 -13 305 -13 "},"¦":{"x_min":162.515625,"x_max":655.609375,"ha":899,"o":"m 544 860 q 527 902 544 885 q 484 919 509 919 q 445 901 461 919 q 429 860 429 884 q 445 820 429 837 q 484 804 461 804 q 527 819 509 804 q 544 860 544 835 m 277 862 q 261 902 277 885 q 222 919 245 919 q 179 902 195 919 q 162 860 162 885 q 179 819 162 835 q 222 804 195 804 q 261 821 245 804 q 277 862 277 838 m 655 116 q 644 147 655 129 l 518 354 l 645 561 q 654 590 654 573 q 623 625 654 625 q 600 617 612 625 q 581 598 588 609 l 458 387 q 450 372 455 381 q 444 356 444 363 q 452 336 444 350 q 465 316 461 323 l 583 112 q 600 91 590 100 q 622 83 611 83 q 645 93 634 83 q 655 116 655 104 m 412 -1 l 412 679 q 400 709 412 695 q 372 722 387 722 q 339 710 352 722 q 326 679 326 698 l 326 -1 l 412 -1 m 576 -136 q 564 -106 576 -119 q 534 -94 552 -94 q 505 -100 525 -94 q 462 -118 486 -106 q 417 -138 438 -127 q 379 -155 395 -148 q 339 -138 362 -148 q 293 -118 316 -129 q 247 -100 268 -106 q 219 -94 227 -94 q 190 -106 202 -94 q 179 -134 179 -118 q 186 -158 179 -147 q 204 -173 193 -169 l 352 -231 q 365 -236 358 -234 q 377 -238 372 -238 q 393 -236 384 -238 q 408 -230 401 -233 l 552 -173 q 576 -136 576 -162 m 515 854 q 500 838 515 838 q 484 854 484 838 q 500 869 484 869 q 515 854 515 869 m 245 863 q 230 848 245 848 q 215 863 215 848 q 230 879 215 879 q 245 863 245 879 "},"/":{"x_min":36.109375,"x_max":515.3125,"ha":565,"o":"m 512 1012 q 515 1031 515 1024 q 506 1053 515 1044 q 486 1063 498 1063 q 465 1054 475 1063 q 451 1035 455 1046 l 36 -16 l 94 -42 l 512 1012 "},"y":{"x_min":22.21875,"x_max":573.65625,"ha":601,"o":"m 422 230 q 479 393 451 315 q 527 534 506 472 q 561 635 548 595 q 573 680 573 675 q 561 709 573 697 q 529 722 548 722 q 502 711 513 722 q 486 684 491 701 l 302 120 l 106 707 l 22 680 l 258 8 q 233 -52 250 -12 q 200 -137 216 -93 q 170 -219 181 -183 q 158 -266 158 -255 q 170 -295 158 -283 q 202 -306 183 -306 q 228 -295 218 -306 q 245 -265 238 -284 q 268 -200 251 -248 q 310 -83 286 -151 q 363 65 334 -15 q 422 230 393 147 "},"":{"x_min":20.828125,"x_max":665.328125,"ha":665,"o":"m 343 -303 l 665 386 l 343 1070 l 20 386 l 343 -303 m 343 976 l 620 386 l 343 -209 l 65 386 l 343 976 "},"Á":{"x_min":29.171875,"x_max":847.296875,"ha":858,"o":"m 543 1136 q 563 1152 555 1141 q 570 1176 570 1163 q 559 1204 570 1193 q 530 1215 548 1215 q 493 1205 520 1215 q 429 1182 465 1195 q 363 1155 394 1168 q 318 1136 333 1143 q 298 1120 306 1132 q 290 1095 290 1108 q 302 1068 290 1079 q 331 1057 313 1057 q 369 1066 341 1057 q 433 1090 397 1076 q 497 1117 466 1104 q 543 1136 527 1130 m 757 -11 l 847 15 l 504 915 q 475 965 490 950 q 425 980 459 980 q 381 962 397 980 q 354 915 365 944 l 34 55 q 29 27 29 43 q 40 -2 29 9 q 70 -13 52 -13 q 96 -5 84 -13 q 113 18 108 2 l 187 215 l 670 215 l 757 -11 m 429 895 l 647 290 l 209 290 l 429 895 "},"g":{"x_min":66.671875,"x_max":680.609375,"ha":785,"o":"m 270 -306 q 307 -312 288 -311 q 345 -313 326 -313 q 477 -288 416 -313 q 584 -219 538 -263 q 654 -114 629 -175 q 680 16 680 -54 l 680 677 q 668 708 680 694 q 640 722 655 722 q 612 714 620 722 q 601 695 604 707 q 598 680 598 688 q 598 663 598 673 l 598 579 q 486 689 543 658 q 370 720 430 720 q 238 687 295 720 q 143 600 181 654 q 86 477 105 545 q 66 338 66 408 q 86 204 66 269 q 143 90 105 140 q 238 10 181 40 q 366 -19 294 -19 q 484 11 429 -19 q 588 122 540 43 q 596 70 595 83 q 597 50 597 58 q 583 -59 597 -6 q 540 -150 569 -111 q 464 -213 511 -190 q 351 -236 418 -236 q 276 -227 313 -236 q 272 -267 273 -247 q 270 -306 270 -287 m 486 618 q 548 563 526 595 q 581 495 570 531 q 595 419 593 458 q 597 343 597 380 q 586 248 597 298 q 551 156 576 198 q 486 86 526 113 q 388 58 447 58 q 279 86 323 58 q 209 156 236 113 q 170 252 181 200 q 159 355 159 305 q 171 456 159 405 q 210 550 183 508 q 280 618 237 591 q 386 644 323 644 q 486 618 437 644 "},"²":{"x_min":0,"x_max":0,"ha":0},"–":{"x_min":56.953125,"x_max":697.28125,"ha":756,"o":"m 670 425 q 697 455 697 425 q 689 475 697 466 q 670 484 682 484 l 86 484 q 65 475 75 484 q 56 455 56 466 q 65 434 56 443 q 84 425 73 425 l 670 425 "},"ë":{"x_min":66.671875,"x_max":690.328125,"ha":747,"o":"m 505 804 q 548 820 531 804 q 565 861 565 836 q 547 902 565 886 q 505 919 530 919 q 466 902 481 919 q 450 861 450 884 q 466 820 450 837 q 505 804 483 804 m 243 804 q 283 821 266 804 q 300 862 300 838 q 283 902 300 886 q 243 919 266 919 q 200 902 218 919 q 183 861 183 886 q 200 820 183 836 q 243 804 218 804 m 632 323 q 678 332 666 323 q 690 373 690 341 q 668 502 690 440 q 607 613 647 565 q 511 691 568 662 q 387 720 455 720 q 254 690 313 720 q 154 609 195 659 q 89 493 112 559 q 66 356 66 427 q 88 214 66 281 q 153 96 111 147 q 256 15 195 45 q 397 -13 318 -13 q 481 -4 443 -13 q 562 22 519 5 l 543 87 q 472 70 508 77 q 401 62 437 62 q 306 82 350 62 q 232 138 263 102 q 184 221 201 173 q 166 323 166 269 l 632 323 m 384 652 q 474 629 434 652 q 541 567 513 605 q 581 481 568 529 q 597 384 595 433 l 161 384 q 182 483 168 434 q 223 569 197 531 q 288 629 250 607 q 384 652 327 652 "},"ƒ":{"x_min":27.78125,"x_max":498.65625,"ha":492,"o":"m 436 968 q 479 973 459 969 q 498 1007 498 977 q 466 1040 498 1033 q 431 1043 450 1043 q 397 1043 413 1043 q 295 1004 334 1043 q 250 904 256 966 l 227 707 q 197 707 208 707 q 175 708 186 708 q 155 707 165 707 q 140 704 147 707 q 118 692 126 701 q 111 663 111 683 q 118 642 111 648 q 138 633 125 636 q 154 630 145 630 q 172 630 162 630 q 192 631 181 630 q 222 632 202 632 l 145 -122 q 142 -156 143 -138 q 134 -190 141 -175 q 69 -227 119 -227 q 48 -227 58 -227 q 27 -226 38 -227 l 27 -302 l 83 -302 q 186 -264 148 -302 q 230 -161 223 -226 l 309 630 q 342 629 329 630 q 368 629 355 629 q 390 629 379 629 q 412 632 401 629 q 444 644 433 634 q 455 675 455 654 q 413 707 455 701 q 391 708 402 708 q 370 708 381 708 q 348 707 359 708 q 318 707 337 707 q 329 816 323 766 q 338 912 334 865 q 377 961 343 951 q 406 967 391 966 q 436 968 422 968 "},"Î":{"x_min":-51.390625,"x_max":348.640625,"ha":297,"o":"m 305 1058 q 336 1070 323 1058 q 348 1100 348 1083 q 323 1138 348 1129 l 173 1194 q 160 1199 169 1195 q 147 1202 151 1202 q 134 1199 143 1202 q 122 1194 126 1195 l -25 1136 q -51 1097 -51 1125 q -39 1069 -51 1080 q -12 1058 -27 1058 q 17 1064 -2 1058 q 62 1082 37 1070 q 109 1102 86 1093 q 148 1119 131 1112 q 186 1102 165 1112 q 231 1082 208 1091 q 275 1064 255 1070 q 305 1058 294 1058 m 104 0 l 193 0 l 193 934 q 180 967 193 954 q 150 980 168 980 q 117 967 130 980 q 104 934 104 954 l 104 0 "},"e":{"x_min":66.671875,"x_max":690.328125,"ha":747,"o":"m 632 323 q 678 332 666 323 q 690 373 690 341 q 668 502 690 440 q 607 613 647 565 q 511 691 568 662 q 387 720 455 720 q 254 690 313 720 q 154 609 195 659 q 89 493 112 559 q 66 356 66 427 q 88 214 66 281 q 153 96 111 147 q 256 15 195 45 q 397 -13 318 -13 q 481 -4 443 -13 q 562 22 519 5 l 543 87 q 472 70 508 77 q 401 62 437 62 q 306 82 350 62 q 232 138 263 102 q 184 221 201 173 q 166 323 166 269 l 632 323 m 384 652 q 476 629 434 652 q 547 567 518 605 q 593 481 576 529 q 611 384 609 433 l 161 384 q 182 483 168 434 q 223 569 197 531 q 288 629 250 607 q 384 652 327 652 "},"Ã":{"x_min":29.171875,"x_max":847.296875,"ha":858,"o":"m 575 1072 q 605 1084 593 1072 q 618 1112 618 1095 q 605 1141 618 1129 q 576 1152 593 1152 l 281 1152 q 253 1141 265 1152 q 241 1112 241 1129 q 253 1083 241 1094 q 283 1072 265 1072 l 575 1072 m 757 -11 l 847 15 l 504 915 q 475 965 490 950 q 425 980 459 980 q 381 962 397 980 q 354 915 365 944 l 34 55 q 29 27 29 43 q 40 -2 29 9 q 70 -13 52 -13 q 96 -5 84 -13 q 113 18 108 2 l 187 215 l 670 215 l 757 -11 m 429 895 l 647 290 l 209 290 l 429 895 "},"J":{"x_min":34.71875,"x_max":405.59375,"ha":510,"o":"m 180 -15 q 276 4 234 -15 q 347 58 318 23 q 391 138 376 93 q 405 237 405 184 l 405 936 q 393 968 405 955 q 361 982 380 982 q 329 969 341 982 q 316 937 316 957 l 316 223 q 309 159 316 190 q 284 105 301 129 q 240 68 268 81 q 172 54 212 54 q 134 59 151 54 q 102 73 118 65 q 81 84 91 79 q 61 95 72 90 l 34 22 q 106 -4 69 5 q 180 -15 143 -15 "},"»":{"x_min":55.5625,"x_max":495.875,"ha":565,"o":"m 491 334 q 495 348 495 344 q 489 366 495 353 q 471 400 483 379 q 445 447 459 421 q 413 501 430 473 q 366 579 388 543 q 331 635 343 615 l 269 597 l 422 353 l 294 146 q 286 116 286 133 q 316 82 286 82 q 340 89 329 82 q 358 108 351 97 l 481 318 q 491 334 487 326 m 276 334 q 280 348 280 344 q 274 366 280 352 q 256 400 268 379 q 229 447 244 420 q 198 501 215 473 q 150 579 173 543 q 116 633 127 615 l 55 597 l 206 352 l 79 145 q 70 116 70 133 q 101 82 70 82 q 125 89 113 82 q 143 108 136 97 l 266 318 q 276 334 272 326 "},"©":{"x_min":93.0625,"x_max":1098.703125,"ha":1192,"o":"m 595 -16 q 791 22 700 -16 q 951 130 883 62 q 1059 290 1019 198 q 1098 486 1098 381 q 1059 682 1098 590 q 951 841 1019 773 q 791 949 883 909 q 595 988 700 988 q 400 949 491 988 q 240 841 308 909 q 132 682 172 773 q 93 486 93 590 q 132 290 93 381 q 240 130 172 198 q 400 22 308 62 q 595 -16 491 -16 m 595 961 q 779 922 694 961 q 929 820 865 884 q 1029 669 993 755 q 1065 486 1065 583 q 1028 302 1065 388 q 928 150 991 215 q 779 48 865 86 q 595 11 693 11 q 411 48 497 11 q 263 150 326 86 q 163 302 200 215 q 127 486 127 388 q 163 670 127 583 q 263 821 200 757 q 411 923 326 886 q 595 961 497 961 m 613 180 q 660 182 630 180 q 719 193 690 184 q 769 216 748 201 q 790 256 790 231 q 784 272 790 266 q 770 279 777 279 q 751 272 768 279 q 736 264 744 269 q 719 254 729 259 q 674 236 700 244 q 613 227 648 227 q 520 250 559 227 q 454 309 480 272 q 417 391 429 345 q 405 481 405 436 q 417 570 405 525 q 453 654 429 616 q 516 715 477 691 q 609 738 555 738 q 666 730 643 738 q 709 711 690 722 q 725 700 718 705 q 738 693 732 695 q 759 686 751 686 q 772 692 766 686 q 777 707 777 698 q 758 745 777 730 q 712 770 738 761 q 658 782 686 779 q 613 786 630 786 q 499 761 548 786 q 416 694 450 736 q 366 596 383 652 q 350 477 350 540 q 368 362 350 416 q 419 268 386 308 q 502 204 452 227 q 613 180 551 180 "},"ò":{"x_min":66.671875,"x_max":691.71875,"ha":760,"o":"m 477 800 q 506 811 495 800 q 518 837 518 822 q 490 877 518 866 q 444 896 475 883 q 379 923 413 909 q 315 947 343 938 q 276 957 287 957 q 248 945 259 957 q 237 919 237 934 q 265 879 237 890 q 311 860 280 873 q 376 833 341 847 q 440 809 412 819 q 477 800 468 800 m 380 -15 q 511 16 454 -15 q 609 100 569 48 q 670 219 650 152 q 691 355 691 286 q 670 491 691 425 q 608 608 648 556 q 510 691 568 659 q 379 722 452 722 q 247 691 305 722 q 150 609 190 659 q 88 492 109 558 q 66 356 66 426 q 87 218 66 286 q 148 99 108 151 q 247 15 188 47 q 380 -15 305 -15 m 377 648 q 481 620 438 648 q 549 550 523 593 q 586 456 575 508 q 598 356 598 404 q 587 256 598 308 q 550 160 576 204 q 481 88 523 116 q 376 59 438 59 q 275 88 316 59 q 209 161 234 118 q 172 257 183 205 q 161 355 161 309 q 172 452 161 401 q 210 547 184 504 q 277 620 236 591 q 377 648 318 648 "},"^":{"x_min":95.84375,"x_max":705.609375,"ha":801,"o":"m 640 242 l 705 242 l 400 781 l 95 242 l 159 242 l 400 679 l 640 242 "},"\f":{"x_min":15.28125,"x_max":413.921875,"ha":424,"o":"m 388 869 q 413 907 413 879 q 401 936 413 923 q 372 949 388 949 q 343 942 362 949 q 300 925 323 936 q 254 904 276 914 q 215 887 231 894 q 175 904 198 894 q 129 925 152 914 q 84 942 104 936 q 55 949 65 949 q 27 937 38 949 q 15 908 15 925 q 22 884 15 896 q 40 869 29 873 l 188 810 q 201 806 194 808 q 215 804 208 804 q 229 806 222 804 q 244 812 237 809 l 388 869 "},"«":{"x_min":69.453125,"x_max":501.421875,"ha":565,"o":"m 438 81 l 501 118 l 356 354 l 486 561 q 494 590 494 573 q 486 615 494 605 q 463 625 477 625 q 441 617 452 625 q 422 598 429 609 l 297 387 q 288 372 294 381 q 283 356 283 363 q 289 340 283 354 q 306 307 295 327 q 331 261 318 287 q 362 209 345 236 q 406 134 386 169 q 438 81 427 100 m 225 82 l 286 118 l 143 354 l 270 561 q 279 590 279 573 q 248 625 279 625 q 225 617 237 625 q 206 598 213 609 l 83 387 q 75 372 80 381 q 69 356 69 363 q 75 341 69 354 q 93 307 81 327 q 118 261 104 287 q 148 209 131 236 q 193 134 172 169 q 225 82 213 100 "},"D":{"x_min":104.171875,"x_max":825.0625,"ha":892,"o":"m 404 0 q 590 39 511 0 q 721 147 669 79 q 799 305 773 215 q 825 495 825 395 q 797 675 825 588 q 716 826 769 761 q 585 930 662 891 q 409 969 508 969 l 247 969 q 166 969 206 969 q 104 970 127 969 l 104 43 q 118 11 104 22 q 155 0 131 0 l 404 0 m 400 891 q 544 857 483 891 q 646 766 605 822 q 707 638 687 709 q 726 495 726 568 q 709 344 726 419 q 652 210 691 269 q 551 114 613 151 q 397 77 488 77 l 193 77 l 193 891 l 400 891 "},"":{"x_min":75,"x_max":687.5625,"ha":763,"o":"m 76 340 l 687 148 l 687 213 l 173 373 l 687 534 l 687 600 l 76 408 l 76 340 m 75 25 l 687 25 l 687 88 l 75 88 l 75 25 "},"":{"x_min":73.609375,"x_max":915.34375,"ha":983,"o":"m 508 330 q 542 265 523 297 q 585 211 561 234 q 641 172 609 187 q 713 158 673 158 q 806 181 768 158 q 868 240 844 204 q 904 323 893 277 q 915 416 915 369 q 900 509 915 463 q 859 591 886 555 q 791 650 832 627 q 700 672 751 672 q 627 657 659 672 q 567 618 594 643 q 519 563 540 594 q 481 500 498 533 q 447 563 466 533 q 404 618 429 594 q 347 657 379 643 q 276 672 316 672 q 185 649 223 672 q 122 588 147 626 q 85 505 97 551 q 73 413 73 459 q 88 320 73 366 q 130 238 102 275 q 198 180 158 202 q 290 158 238 158 q 363 172 330 158 q 422 211 395 187 q 470 267 448 236 q 508 330 491 298 m 458 454 q 425 386 444 423 q 382 316 406 348 q 327 261 358 283 q 255 238 295 238 q 191 252 219 238 q 145 290 163 266 q 117 345 126 315 q 108 409 108 376 q 119 477 108 445 q 152 531 130 508 q 203 569 173 555 q 270 583 233 583 q 382 545 337 583 q 458 454 427 508 m 531 376 q 563 443 544 405 q 606 513 581 480 q 661 568 630 545 q 729 591 691 591 q 843 541 804 591 q 882 420 882 491 q 870 352 882 384 q 838 297 859 320 q 786 260 816 273 q 719 247 757 247 q 606 282 652 247 q 531 376 561 318 "},"∙":{"x_min":90.28125,"x_max":206.96875,"ha":297,"o":"m 148 291 q 189 308 172 291 q 206 348 206 325 q 189 390 206 373 q 147 406 172 406 q 106 389 123 406 q 90 348 90 372 q 107 308 90 325 q 148 291 125 291 "},"ÿ":{"x_min":22.21875,"x_max":573.65625,"ha":601,"o":"m 431 804 q 475 820 458 804 q 491 861 491 836 q 474 902 491 886 q 431 919 456 919 q 392 902 408 919 q 376 861 376 884 q 393 820 376 837 q 431 804 409 804 m 169 804 q 209 821 193 804 q 226 862 226 838 q 209 902 226 886 q 169 919 193 919 q 127 902 144 919 q 109 861 109 886 q 127 820 109 836 q 169 804 144 804 m 422 230 q 479 393 451 315 q 527 534 506 472 q 561 635 548 595 q 573 680 573 675 q 561 709 573 697 q 529 722 548 722 q 502 711 513 722 q 486 684 491 701 l 302 120 l 106 707 l 22 680 l 258 8 q 233 -52 250 -12 q 200 -137 216 -93 q 170 -219 181 -183 q 158 -266 158 -255 q 170 -295 158 -283 q 202 -306 183 -306 q 228 -295 218 -306 q 245 -265 238 -284 q 268 -200 251 -248 q 310 -83 286 -151 q 363 65 334 -15 q 422 230 393 147 "},"":{"x_min":77.78125,"x_max":684.78125,"ha":763,"o":"m 302 188 l 684 188 l 684 247 l 354 247 l 486 377 l 684 377 l 684 436 l 536 436 l 655 554 l 616 593 l 459 436 l 77 436 l 77 377 l 409 377 l 277 247 l 77 247 l 77 188 l 226 188 l 106 70 l 145 31 l 302 188 "},"í":{"x_min":-6.9375,"x_max":273.640625,"ha":264,"o":"m 245 877 q 266 894 258 883 q 273 918 273 905 q 262 945 273 934 q 233 957 251 957 q 195 947 223 957 q 131 923 168 937 q 66 897 97 909 q 20 877 36 884 q 1 861 9 873 q -6 837 -6 850 q 4 809 -6 820 q 34 798 16 798 q 72 808 44 798 q 136 832 100 818 q 200 859 169 845 q 245 877 230 872 m 105 -1 l 191 -1 l 191 679 q 179 709 191 695 q 151 722 166 722 q 118 710 131 722 q 105 679 105 698 l 105 -1 "},"ˆ":{"x_min":12.5,"x_max":412.53125,"ha":425,"o":"m 369 800 q 400 812 387 800 q 412 841 412 825 q 387 880 412 871 l 237 936 q 224 941 233 938 q 211 945 215 945 q 198 941 206 945 q 186 936 190 938 l 38 878 q 12 839 12 866 q 24 811 12 822 q 51 800 36 800 q 81 806 61 800 q 126 823 101 812 q 172 844 150 834 q 212 861 195 854 q 250 843 229 854 q 295 823 272 833 q 338 806 319 812 q 369 800 358 800 "},"w":{"x_min":23.609375,"x_max":1030.640625,"ha":1057,"o":"m 1027 662 q 1030 678 1030 673 q 1017 709 1030 696 q 984 721 1004 721 q 957 712 969 721 q 940 689 944 703 l 758 110 l 583 662 l 475 662 l 298 109 l 109 716 l 23 688 l 240 39 q 261 0 248 14 q 297 -13 273 -13 q 331 0 319 -13 q 351 35 344 12 l 529 593 l 705 35 q 725 0 712 12 q 759 -13 737 -13 q 795 0 783 -13 q 816 41 807 14 l 1027 662 "},"$":{"x_min":50,"x_max":640.328125,"ha":678,"o":"m 344 -11 q 461 19 406 -6 q 554 87 515 45 q 617 182 594 129 q 640 294 640 236 q 615 399 640 355 q 549 475 590 443 q 454 529 508 506 q 344 570 401 551 l 344 908 q 410 890 380 901 q 465 868 440 879 q 489 857 477 862 q 511 848 501 852 q 537 840 531 840 q 563 845 552 840 q 575 868 575 851 q 548 916 575 894 q 486 951 522 937 q 409 973 450 965 q 343 980 369 980 q 345 1020 343 1001 q 344 1054 347 1038 q 339 1074 343 1069 q 330 1079 336 1079 q 320 1070 322 1079 q 319 1051 319 1062 q 319 1016 318 1034 q 320 977 320 997 q 222 956 268 977 q 141 900 176 934 q 86 822 106 866 q 66 733 66 779 q 109 602 66 655 q 223 520 152 550 q 268 503 245 511 q 320 483 291 495 l 320 72 l 290 72 q 241 78 266 72 q 191 95 216 84 q 144 119 166 105 q 104 148 122 133 l 50 83 q 98 41 66 59 q 168 11 130 23 q 247 -5 206 0 q 320 -11 287 -11 l 320 -101 l 344 -102 l 344 -11 m 320 904 l 322 577 q 260 606 288 590 q 211 642 231 622 q 177 688 190 662 q 165 745 165 713 q 209 847 165 802 q 320 904 254 893 m 344 477 q 418 449 383 465 q 481 411 454 433 q 526 358 509 388 q 543 286 543 327 q 527 214 543 250 q 486 149 512 179 q 423 99 459 119 q 344 73 387 79 l 344 477 "},"\\":{"x_min":87.5,"x_max":313.90625,"ha":401,"o":"m 256 0 l 313 0 l 144 969 l 87 969 l 256 0 "},"":{"x_min":-109.734375,"x_max":490.3125,"ha":376,"o":"m 437 891 q 490 943 490 891 q 461 1000 490 979 q 393 1020 431 1020 q 306 997 344 1020 q 242 932 269 973 q 197 834 215 890 q 168 713 179 777 q 151 581 156 648 q 143 454 145 515 q 141 340 141 393 q 140 254 141 288 q 139 221 140 245 q 137 163 138 197 q 133 90 136 130 q 126 11 130 51 q 114 -72 122 -31 q 96 -143 106 -112 q 72 -192 86 -173 q 45 -211 59 -211 q 11 -193 22 -211 q -8 -159 1 -176 q -27 -134 -16 -144 q -56 -123 -37 -123 q -109 -173 -109 -123 q -80 -230 -109 -209 q -12 -251 -51 -251 q 48 -238 20 -251 q 100 -204 76 -226 q 142 -155 123 -183 q 173 -98 161 -127 q 208 35 195 -47 q 227 209 220 118 q 237 388 234 301 q 241 534 240 475 q 242 566 241 543 q 243 620 243 588 q 247 691 244 652 q 254 768 250 729 q 266 847 258 809 q 284 916 273 886 q 307 963 294 945 q 336 980 320 980 q 369 962 359 980 q 388 927 379 944 q 407 902 397 912 q 437 891 418 891 "},"Ì":{"x_min":6.9375,"x_max":287.515625,"ha":297,"o":"m 247 1058 q 276 1069 265 1058 q 287 1095 287 1080 q 259 1136 287 1125 q 213 1154 244 1141 q 148 1182 183 1168 q 84 1206 112 1197 q 45 1215 56 1215 q 18 1204 29 1215 q 6 1177 6 1193 q 34 1137 6 1148 q 80 1118 50 1132 q 145 1091 111 1105 q 209 1068 181 1077 q 247 1058 237 1058 m 104 0 l 193 0 l 193 934 q 180 967 193 954 q 150 980 168 980 q 117 967 130 980 q 104 934 104 954 l 104 0 "},"µ":{"x_min":101,"x_max":774.59375,"ha":839,"o":"m 230 623 l 102 623 l 102 278 q 104 144 102 210 q 106 10 106 77 q 103 -90 106 -39 q 101 -190 101 -140 q 102 -224 101 -207 q 110 -256 103 -242 q 128 -281 116 -271 q 160 -290 139 -290 q 203 -275 188 -290 q 219 -232 219 -260 q 205 -176 219 -211 q 174 -99 191 -142 q 144 -9 157 -57 q 130 85 130 38 q 130 108 130 97 q 131 130 131 119 q 182 27 146 67 q 288 -13 219 -13 q 375 8 339 -13 q 437 64 412 30 q 480 141 463 98 q 507 225 496 184 q 512 148 507 189 q 532 71 517 106 q 574 11 546 35 q 649 -13 602 -13 q 708 0 684 -13 q 747 37 732 14 q 768 90 762 60 q 774 149 774 119 q 773 165 774 156 q 773 180 773 173 l 744 180 q 743 142 744 165 q 737 98 742 119 q 719 62 731 77 q 684 47 706 47 q 653 60 664 47 q 637 94 642 74 q 632 133 632 113 q 631 167 631 153 l 631 623 l 503 623 q 505 506 503 566 q 502 387 506 447 q 487 269 498 327 q 450 158 475 212 q 428 117 441 137 q 400 82 416 98 q 364 56 384 66 q 319 47 344 47 q 266 62 284 47 q 239 103 248 78 q 230 158 231 128 q 230 212 230 187 l 230 623 "},"Ç":{"x_min":67,"x_max":792.21875,"ha":828,"o":"m 550 -11 q 616 0 575 -8 q 696 23 657 8 q 763 61 735 38 q 792 112 792 83 q 781 144 792 131 q 753 156 769 156 q 725 144 746 156 q 701 129 714 137 q 672 113 688 122 q 599 81 640 95 q 500 68 557 68 q 347 104 411 68 q 242 201 283 141 q 182 335 201 261 q 163 485 163 409 q 181 629 163 555 q 238 763 199 703 q 340 863 278 824 q 488 902 401 902 q 560 895 528 902 q 619 874 592 888 q 671 840 646 860 q 721 795 696 820 l 771 840 q 721 901 751 875 q 653 946 690 928 q 575 975 615 965 q 496 985 535 985 q 308 943 389 985 q 174 830 228 901 q 94 667 121 759 q 67 475 67 575 q 92 300 67 383 q 168 149 117 216 q 297 39 219 83 q 481 -14 375 -4 q 442 -55 457 -40 q 414 -86 426 -70 q 388 -131 388 -116 q 396 -150 388 -142 q 417 -158 404 -158 q 450 -141 438 -158 l 550 -11 "},"’":{"x_min":29.171875,"x_max":227.796875,"ha":268,"o":"m 222 947 q 227 966 227 958 q 214 997 227 984 q 183 1011 201 1011 q 161 1004 172 1011 q 144 986 150 997 l 29 751 l 109 713 l 222 947 "},"-":{"x_min":76.390625,"x_max":430.59375,"ha":500,"o":"m 393 351 q 419 363 408 351 q 430 390 430 375 q 419 417 430 405 q 393 429 408 429 l 76 429 l 77 351 l 393 351 "},"Q":{"x_min":66.671875,"x_max":963.96875,"ha":976,"o":"m 909 -33 l 963 23 l 818 166 q 888 322 869 245 q 908 484 908 398 q 880 670 908 580 q 800 829 852 759 q 668 940 747 898 q 488 982 590 982 q 307 941 386 982 q 175 831 229 900 q 94 672 122 762 q 66 486 66 583 q 93 299 66 388 q 174 140 120 209 q 306 29 227 70 q 488 -12 386 -12 q 634 16 563 -12 q 768 108 705 45 l 909 -33 m 483 907 q 632 870 570 907 q 733 773 694 833 q 790 640 772 713 q 808 493 808 566 q 797 367 808 429 q 755 230 787 305 q 716 270 733 251 q 679 308 698 290 q 648 335 663 323 q 622 347 633 347 q 595 335 607 347 q 583 308 583 323 q 594 280 583 297 q 625 244 605 263 q 664 206 644 225 q 704 169 684 188 q 604 87 659 113 q 487 61 548 61 q 334 101 395 61 q 235 204 272 141 q 182 345 198 268 q 166 495 166 422 q 184 638 166 565 q 239 770 201 711 q 337 868 277 830 q 483 907 397 907 "},"M":{"x_min":63.890625,"x_max":1125.09375,"ha":1186,"o":"m 1036 -4 l 1125 11 l 975 918 q 948 963 970 945 q 897 980 926 980 q 825 920 843 980 l 593 127 l 362 920 q 288 980 344 980 q 238 963 259 980 q 211 918 216 945 l 65 47 q 63 29 63 41 q 75 0 63 11 q 106 -11 87 -11 q 154 31 147 -11 l 284 913 l 544 33 l 641 33 l 902 913 l 1036 -4 "},"C":{"x_min":67,"x_max":792.21875,"ha":846,"o":"m 739 48 q 774 74 756 59 q 792 112 792 88 q 781 144 792 131 q 753 156 769 156 q 724 144 746 156 q 700 129 713 137 q 672 113 688 122 q 600 81 642 95 q 500 68 558 68 q 347 104 411 68 q 242 201 283 141 q 182 335 201 261 q 163 485 163 409 q 181 629 163 555 q 238 763 199 703 q 340 863 278 824 q 488 902 401 902 q 560 895 528 902 q 619 874 592 888 q 671 840 646 860 q 721 795 696 820 l 771 840 q 718 901 751 875 q 645 946 685 928 q 563 975 606 965 q 482 985 521 985 q 297 943 375 985 q 167 830 218 901 q 91 667 115 759 q 67 475 67 575 q 95 287 67 376 q 178 131 124 198 q 314 25 233 65 q 497 -14 394 -14 q 624 0 560 -14 q 739 48 688 15 "},"œ":{"x_min":66.671875,"x_max":1213.984375,"ha":1270,"o":"m 1154 330 q 1202 337 1190 330 q 1213 380 1213 345 q 1192 509 1213 448 q 1131 618 1170 571 q 1034 694 1091 666 q 908 723 977 723 q 759 678 829 723 q 643 545 690 634 q 526 678 598 634 q 377 721 454 721 q 246 691 304 721 q 148 609 188 660 q 87 493 108 559 q 66 357 66 427 q 86 222 66 288 q 145 104 106 156 q 241 21 184 52 q 372 -10 298 -10 q 522 32 447 -10 q 643 163 597 75 q 765 29 690 71 q 920 -13 840 -13 q 994 -5 958 -13 q 1066 16 1030 2 q 1048 53 1057 34 q 1040 72 1044 63 q 1033 88 1036 81 q 982 73 1008 78 q 927 67 955 67 q 832 87 875 67 q 758 142 788 107 q 711 225 727 177 q 693 330 694 273 l 1154 330 m 902 650 q 995 628 955 650 q 1063 570 1036 607 q 1106 487 1091 534 q 1120 387 1120 440 l 688 387 q 711 481 697 434 q 749 566 725 529 q 810 627 773 604 q 902 650 847 650 m 372 654 q 478 628 436 654 q 547 561 520 602 q 584 468 573 519 q 595 365 595 416 q 586 263 595 316 q 553 165 577 209 q 487 90 529 120 q 380 61 445 61 q 277 88 319 61 q 210 156 236 115 q 172 249 184 198 q 161 347 161 300 q 170 445 161 391 q 204 545 180 498 q 270 622 229 591 q 372 654 311 654 "},"!":{"x_min":87.5,"x_max":204.1875,"ha":292,"o":"m 104 204 l 188 202 l 188 947 q 175 978 188 965 q 144 991 162 991 q 115 979 127 991 q 104 948 104 966 l 104 204 m 145 -18 q 186 0 169 -18 q 204 40 204 16 q 186 80 204 63 q 144 97 169 97 q 104 79 120 97 q 87 37 87 62 q 104 -2 87 13 q 145 -18 122 -18 "},"ç":{"x_min":66.671875,"x_max":584.765625,"ha":624,"o":"m 544 594 l 584 665 q 493 707 536 693 q 391 722 450 722 q 253 692 313 722 q 151 611 193 662 q 88 494 109 561 q 66 352 66 427 q 83 229 66 290 q 134 120 100 169 q 222 37 169 72 q 350 -9 276 2 q 319 -54 334 -33 q 288 -97 304 -76 q 265 -133 276 -116 q 255 -158 255 -150 q 263 -177 255 -169 q 283 -186 272 -186 q 318 -169 305 -186 l 419 -9 q 466 -3 440 -8 q 514 10 491 1 q 553 34 537 19 q 569 72 569 48 q 557 98 569 87 q 530 109 545 109 q 506 104 522 109 q 489 97 498 101 q 470 88 480 93 q 429 73 451 80 q 383 66 406 66 q 284 95 326 66 q 215 167 243 123 q 175 261 188 211 q 162 358 162 312 q 175 459 162 408 q 215 551 187 509 q 286 618 243 593 q 391 644 330 644 q 470 629 431 644 q 544 594 508 613 "},"È":{"x_min":104.171875,"x_max":583.375,"ha":621,"o":"m 408 1058 q 437 1069 426 1058 q 448 1095 448 1080 q 420 1136 448 1125 q 375 1154 405 1141 q 309 1182 344 1168 q 245 1206 273 1197 q 206 1215 218 1215 q 179 1204 190 1215 q 168 1177 168 1193 q 195 1137 168 1148 q 241 1118 211 1132 q 306 1091 272 1105 q 370 1068 343 1077 q 408 1058 398 1058 m 150 0 l 583 0 l 583 79 l 195 79 l 195 444 l 486 444 q 514 456 502 444 q 526 484 526 468 q 514 512 526 501 q 484 523 502 523 l 195 523 l 195 890 l 500 890 q 529 901 518 890 q 541 930 541 912 q 529 957 541 945 q 501 969 518 969 l 151 969 q 127 969 140 969 q 105 970 116 969 l 104 50 q 115 13 104 26 q 150 0 127 0 "},"{":{"x_min":119.453125,"x_max":361.140625,"ha":446,"o":"m 355 1104 q 361 1111 361 1105 q 358 1123 361 1120 q 352 1125 355 1125 l 263 1125 q 196 1107 222 1125 q 170 1048 170 1088 l 170 583 q 157 526 170 552 q 119 484 144 500 q 170 386 170 454 l 170 -79 q 196 -137 170 -119 q 263 -155 222 -155 l 337 -155 l 337 -134 q 294 -130 312 -134 q 263 -115 276 -126 q 245 -86 251 -105 q 240 -34 240 -66 l 240 376 q 226 413 240 394 q 195 447 212 431 q 165 474 179 463 q 151 484 151 484 q 165 495 151 484 q 195 521 179 505 q 226 556 212 537 q 240 593 240 575 l 240 1004 q 263 1083 240 1063 q 315 1104 286 1102 l 338 1104 l 355 1104 "},"X":{"x_min":29.171875,"x_max":801.453125,"ha":832,"o":"m 758 -13 q 788 -1 776 -13 q 801 27 801 10 q 790 60 801 42 l 468 520 l 743 909 q 754 937 754 924 q 740 967 754 955 q 708 980 726 980 q 686 972 697 980 q 668 953 676 964 l 415 582 l 150 974 l 75 928 l 362 520 l 40 60 q 29 28 29 42 q 42 0 29 12 q 73 -13 55 -13 q 112 10 95 -13 l 415 450 l 719 10 q 758 -13 736 -13 "},"ô":{"x_min":66.671875,"x_max":691.71875,"ha":760,"o":"m 536 800 q 566 812 554 800 q 579 841 579 825 q 554 880 579 870 l 404 936 q 391 941 400 937 q 377 944 381 944 q 365 941 373 944 q 352 936 356 937 l 205 877 q 179 838 179 866 q 190 811 179 822 q 218 800 202 800 q 247 806 227 800 q 293 823 268 812 q 339 844 316 834 q 379 861 362 854 q 417 843 395 854 q 462 823 438 833 q 505 806 486 812 q 536 800 525 800 m 380 -15 q 511 16 454 -15 q 609 100 569 48 q 670 219 650 152 q 691 355 691 286 q 670 491 691 425 q 608 608 648 556 q 510 691 568 659 q 379 722 452 722 q 247 691 305 722 q 150 609 190 659 q 88 492 109 558 q 66 356 66 426 q 87 218 66 286 q 148 99 108 151 q 247 15 188 47 q 380 -15 305 -15 m 377 648 q 481 620 438 648 q 549 550 523 593 q 586 456 575 508 q 598 356 598 404 q 587 256 598 308 q 550 160 576 204 q 481 88 523 116 q 376 59 438 59 q 275 88 316 59 q 209 161 234 118 q 172 257 183 205 q 161 355 161 309 q 172 452 161 401 q 210 547 184 504 q 277 620 236 591 q 377 648 318 648 "},"¼":{"x_min":0,"x_max":0,"ha":0},"#":{"x_min":68.0625,"x_max":779.234375,"ha":849,"o":"m 251 373 l 111 373 q 81 362 95 373 q 68 334 68 351 q 77 314 68 323 q 97 305 86 305 l 237 305 q 231 273 236 297 q 220 219 226 250 q 206 154 213 189 q 194 90 200 119 q 184 40 188 61 q 180 15 180 19 q 188 -3 180 4 q 206 -11 195 -11 q 230 -1 220 -11 q 243 19 240 7 l 302 308 l 462 308 q 450 249 459 294 q 429 154 440 204 q 411 62 419 104 q 402 12 402 20 q 411 -4 402 1 q 429 -11 419 -11 q 454 -2 443 -11 q 468 19 465 5 l 526 304 l 670 304 q 700 316 687 304 q 713 345 713 327 q 704 365 713 357 q 684 373 695 373 l 541 373 l 594 627 l 737 627 q 766 638 752 627 q 779 665 779 648 q 770 684 779 676 q 751 693 762 693 l 608 693 l 670 976 l 604 976 l 543 693 l 384 693 l 447 976 l 380 976 l 318 693 l 181 693 q 153 683 166 693 q 140 657 140 673 q 147 636 140 644 q 169 627 155 627 l 304 627 l 251 373 m 316 373 l 370 627 l 529 627 l 476 373 l 316 373 "},"Ê":{"x_min":104.171875,"x_max":583.375,"ha":621,"o":"m 466 1058 q 497 1070 484 1058 q 509 1100 509 1083 q 484 1138 509 1129 l 334 1194 q 321 1199 330 1195 q 308 1202 312 1202 q 295 1199 304 1202 q 283 1194 287 1195 l 136 1136 q 109 1097 109 1125 q 121 1069 109 1080 q 148 1058 133 1058 q 178 1064 158 1058 q 223 1082 198 1070 q 270 1102 247 1093 q 309 1119 293 1112 q 347 1102 326 1112 q 393 1082 369 1091 q 436 1064 416 1070 q 466 1058 455 1058 m 150 0 l 583 0 l 583 79 l 195 79 l 195 444 l 486 444 q 514 456 502 444 q 526 484 526 468 q 514 512 526 501 q 484 523 502 523 l 195 523 l 195 890 l 500 890 q 529 901 518 890 q 541 930 541 912 q 529 957 541 945 q 501 969 518 969 l 151 969 q 127 969 140 969 q 105 970 116 969 l 104 50 q 115 13 104 26 q 150 0 127 0 "},")":{"x_min":37.875,"x_max":199,"ha":283,"o":"m 82 -71 q 121 -33 104 -71 q 152 61 139 4 q 174 189 165 119 q 189 324 183 259 q 196 440 194 389 q 199 512 199 491 q 173 792 199 655 q 107 1063 147 928 l 37 1049 q 73 927 57 1003 q 100 771 89 851 q 117 615 111 690 q 124 497 124 540 q 110 287 124 391 q 72 80 96 183 q 64 51 69 66 q 54 20 58 36 q 47 -9 50 5 q 44 -36 44 -23 q 55 -61 44 -51 q 82 -71 67 -71 "},"\u001c":{"x_min":0,"x_max":0,"ha":0},"Å":{"x_min":29.171875,"x_max":847.296875,"ha":857,"o":"m 423 987 q 374 951 387 968 q 354 915 361 934 l 34 55 q 29 27 29 43 q 40 -2 29 9 q 70 -13 52 -13 q 96 -5 84 -13 q 113 18 108 2 l 187 215 l 670 215 l 757 -11 l 847 15 l 504 915 q 481 952 495 936 q 423 987 468 969 m 427 991 q 510 1038 487 1011 q 533 1097 533 1065 q 502 1168 533 1138 q 429 1198 470 1198 q 355 1168 386 1198 q 325 1097 325 1138 q 347 1037 325 1063 q 427 991 370 1011 m 430 1165 q 478 1145 458 1165 q 498 1097 498 1125 q 477 1048 498 1066 q 429 1029 456 1029 q 380 1050 400 1029 q 361 1098 361 1070 q 381 1146 361 1127 q 430 1165 402 1165 m 429 895 l 647 290 l 209 290 l 429 895 "},"ø":{"x_min":50.328125,"x_max":704.890625,"ha":758,"o":"m 671 670 q 694 702 684 687 q 704 726 704 716 q 679 750 704 750 q 659 738 670 750 q 638 715 649 727 q 610 680 623 698 q 584 645 598 662 q 377 722 483 722 q 246 690 304 722 q 149 608 189 659 q 88 492 109 558 q 67 356 67 426 q 85 230 67 292 q 140 106 103 168 l 50 -23 l 82 -50 l 177 73 q 273 6 223 26 q 376 -14 323 -14 q 507 16 449 -14 q 607 97 566 47 q 669 213 648 148 q 691 349 691 279 q 672 478 691 416 q 613 602 654 540 q 641 635 625 618 q 671 670 656 652 m 380 648 q 456 631 419 648 q 526 577 494 614 l 201 175 q 169 269 177 228 q 161 349 161 310 q 172 449 161 396 q 208 545 183 502 q 276 618 234 589 q 380 648 317 648 m 556 534 q 589 433 581 475 q 597 349 597 391 q 585 250 597 300 q 547 157 573 199 q 478 89 520 116 q 376 62 435 62 q 299 77 337 62 q 227 128 262 92 l 556 534 "},"â":{"x_min":65.28125,"x_max":683.390625,"ha":788,"o":"m 550 800 q 580 812 568 800 q 593 841 593 825 q 568 880 593 870 l 418 936 q 404 941 413 937 q 391 944 395 944 q 379 941 387 944 q 366 936 370 937 l 219 877 q 193 838 193 866 q 204 811 193 822 q 231 800 216 800 q 261 806 241 800 q 306 823 281 812 q 353 844 330 834 q 393 861 376 854 q 431 843 409 854 q 476 823 452 833 q 519 806 500 812 q 550 800 538 800 m 595 -5 l 683 -5 l 683 679 q 670 709 683 695 q 643 722 658 722 q 613 716 622 722 q 602 700 605 709 q 597 673 600 691 l 597 595 q 485 694 540 666 q 372 722 430 722 q 243 691 300 722 q 146 608 186 659 q 86 491 106 556 q 65 356 65 425 q 85 220 65 286 q 144 102 105 154 q 240 18 183 50 q 372 -12 297 -12 q 488 20 433 -12 q 595 141 543 54 l 595 -5 m 386 651 q 491 625 450 651 q 556 557 531 598 q 590 466 580 516 q 600 366 600 415 q 591 260 600 315 q 558 161 581 205 q 491 87 534 116 q 379 58 447 58 q 274 86 316 58 q 206 159 231 115 q 170 256 180 204 q 159 358 159 309 q 171 459 159 406 q 210 553 183 511 q 280 623 237 595 q 386 651 323 651 "},"}":{"x_min":84.734375,"x_max":326.421875,"ha":446,"o":"m 275 386 q 288 443 275 418 q 326 484 302 469 q 288 526 301 500 q 275 583 275 552 l 275 1048 q 250 1107 275 1088 q 183 1125 225 1125 l 93 1125 q 84 1115 84 1125 q 91 1104 84 1105 l 106 1104 l 130 1104 q 158 1100 144 1104 q 182 1084 172 1095 q 199 1054 193 1073 q 205 1004 205 1034 l 205 593 q 219 556 205 575 q 250 521 233 537 q 281 495 268 505 q 295 484 295 484 q 281 474 295 484 q 250 447 268 463 q 219 413 233 431 q 205 376 205 394 l 205 -34 q 200 -86 205 -66 q 182 -115 194 -105 q 152 -130 170 -126 q 108 -134 133 -134 l 108 -155 l 183 -155 q 250 -137 225 -155 q 275 -79 275 -119 l 275 386 "},"‰":{"x_min":69.453125,"x_max":1266.765625,"ha":1336,"o":"m 1090 -23 q 1168 -4 1136 -23 q 1223 47 1201 15 q 1256 120 1245 79 q 1266 204 1266 161 q 1256 284 1266 245 q 1224 352 1245 323 q 1170 400 1202 381 q 1094 418 1137 418 q 1017 399 1051 418 q 960 349 983 380 q 925 278 937 318 q 913 197 913 238 q 925 115 913 155 q 958 44 936 75 q 1013 -4 980 13 q 1090 -23 1045 -23 m 244 543 q 320 563 287 543 q 375 616 354 583 q 408 691 397 650 q 419 773 419 732 q 408 854 419 815 q 375 922 397 893 q 322 971 354 952 q 247 990 290 990 q 169 970 202 990 q 113 920 136 951 q 80 847 91 888 q 69 765 69 807 q 81 684 69 725 q 115 613 93 644 q 170 562 137 581 q 244 543 202 543 m 658 945 q 659 959 659 950 q 633 991 659 991 q 607 973 613 991 l 259 23 q 256 6 256 12 q 263 -15 256 -6 q 281 -23 270 -23 q 297 -17 288 -23 q 309 -2 306 -11 l 658 945 m 675 -23 q 752 -4 719 -23 q 807 47 786 15 q 840 120 829 79 q 851 204 851 161 q 841 284 851 245 q 809 352 830 323 q 754 400 787 381 q 679 418 722 418 q 601 399 634 418 q 545 350 568 380 q 510 279 522 319 q 498 197 498 238 q 509 115 498 155 q 543 44 520 75 q 597 -4 565 13 q 675 -23 630 -23 m 1090 372 q 1149 356 1125 372 q 1187 316 1173 340 q 1207 262 1201 291 q 1213 208 1213 233 q 1209 150 1213 183 q 1191 88 1205 118 q 1153 40 1177 59 q 1090 20 1129 20 q 1029 39 1052 20 q 992 85 1005 58 q 973 143 979 112 q 968 197 968 173 q 973 252 968 222 q 991 309 977 283 q 1028 354 1004 336 q 1090 372 1052 372 m 245 944 q 304 926 280 944 q 341 882 327 908 q 361 827 355 857 q 366 773 366 797 q 361 718 366 750 q 341 657 355 686 q 304 609 327 629 q 244 588 280 588 q 185 608 208 588 q 147 654 162 627 q 127 712 133 682 q 122 766 122 743 q 127 821 122 790 q 147 879 133 852 q 184 925 161 907 q 245 944 208 944 m 675 372 q 734 356 709 372 q 772 316 758 340 q 792 262 786 291 q 798 208 798 233 q 794 150 798 183 q 776 89 790 118 q 738 40 762 61 q 675 20 713 20 q 613 38 637 20 q 576 84 590 56 q 556 141 562 111 q 551 197 551 172 q 556 252 551 222 q 575 309 561 283 q 613 354 588 336 q 675 372 637 372 "},"Ä":{"x_min":29.171875,"x_max":847.296875,"ha":858,"o":"m 591 950 q 632 965 616 950 q 648 1004 648 980 q 632 1044 648 1027 q 593 1061 616 1061 q 553 1043 569 1061 q 537 1002 537 1026 q 554 966 537 982 q 591 950 570 950 m 265 950 q 303 966 287 950 q 319 1005 319 983 q 303 1044 319 1027 q 265 1061 287 1061 q 225 1044 241 1061 q 208 1004 208 1027 q 225 965 208 980 q 265 950 241 950 m 757 -11 l 847 15 l 504 915 q 475 965 490 950 q 425 980 459 980 q 381 962 397 980 q 354 915 365 944 l 34 55 q 29 27 29 43 q 40 -2 29 9 q 70 -13 52 -13 q 96 -5 84 -13 q 113 18 108 2 l 187 215 l 670 215 l 757 -11 m 429 895 l 647 290 l 209 290 l 429 895 "},"¸":{"x_min":40.28125,"x_max":201.40625,"ha":225,"o":"m 105 -190 l 201 11 l 126 11 l 55 -118 q 40 -176 40 -145 q 50 -200 40 -190 q 73 -211 59 -211 q 105 -190 95 -211 "},"a":{"x_min":65.28125,"x_max":683.390625,"ha":788,"o":"m 595 -5 l 683 -5 l 683 679 q 670 709 683 695 q 643 722 658 722 q 613 716 622 722 q 602 700 605 709 q 597 673 600 691 l 597 595 q 485 694 540 666 q 372 722 430 722 q 243 691 300 722 q 146 608 186 659 q 86 491 106 556 q 65 356 65 425 q 85 220 65 286 q 144 102 105 154 q 240 18 183 50 q 372 -12 297 -12 q 488 20 433 -12 q 595 141 543 54 l 595 -5 m 386 651 q 491 625 450 651 q 556 557 531 598 q 590 466 580 516 q 600 366 600 415 q 591 260 600 315 q 558 161 581 205 q 491 87 534 116 q 379 58 447 58 q 274 86 316 58 q 206 159 231 115 q 170 256 180 204 q 159 358 159 309 q 171 459 159 406 q 210 553 183 511 q 280 623 237 595 q 386 651 323 651 "},"—":{"x_min":80.5625,"x_max":661.15625,"ha":745,"o":"m 80 270 l 661 270 l 661 358 l 80 358 l 80 270 "},"=":{"x_min":55.5625,"x_max":698.671875,"ha":756,"o":"m 87 377 l 663 377 l 663 440 l 88 440 q 65 431 75 440 q 55 409 55 422 q 64 386 55 395 q 87 377 73 377 m 665 204 q 689 213 680 204 q 698 234 698 222 q 688 256 698 247 q 665 265 679 265 l 90 265 l 88 204 l 665 204 "},"N":{"x_min":104.171875,"x_max":840.34375,"ha":945,"o":"m 795 -13 q 827 -1 815 -13 q 840 30 840 11 l 840 934 q 827 968 840 954 q 794 982 813 982 q 763 968 776 982 q 751 934 751 954 l 752 141 l 187 962 q 150 982 175 982 q 117 968 130 982 q 104 936 104 955 l 104 1 l 193 0 l 193 827 l 758 5 q 795 -13 770 -13 "},"ú":{"x_min":104.171875,"x_max":659.78125,"ha":764,"o":"m 495 877 q 516 894 508 883 q 523 918 523 905 q 512 945 523 934 q 483 957 501 957 q 445 947 473 957 q 381 923 418 937 q 316 897 347 909 q 270 877 286 884 q 251 861 259 873 q 243 837 243 850 q 254 809 243 820 q 284 798 266 798 q 322 808 294 798 q 386 832 350 818 q 450 859 419 845 q 495 877 480 872 m 381 -13 q 588 55 516 -13 q 659 259 659 124 l 659 675 q 647 708 659 695 q 616 721 636 721 q 586 709 598 721 q 573 677 573 696 l 573 262 q 527 114 573 168 q 381 60 480 60 q 237 115 283 60 q 191 262 191 170 l 191 695 l 104 694 l 104 259 q 175 55 104 124 q 381 -13 247 -13 "},"2":{"x_min":93.0625,"x_max":651.4375,"ha":756,"o":"m 161 0 l 651 0 l 651 79 l 223 79 q 329 222 283 158 q 420 347 376 286 q 487 434 450 387 q 558 533 525 481 q 613 636 591 584 q 634 741 634 688 q 613 838 634 794 q 558 915 593 883 q 477 965 523 947 q 379 983 430 983 q 263 960 316 983 q 172 897 211 937 q 113 804 134 858 q 93 690 93 751 q 102 645 93 661 q 137 630 112 630 q 170 651 159 630 q 175 668 175 657 q 176 677 176 673 q 177 690 176 683 q 196 768 183 730 q 232 836 209 807 q 290 882 255 865 q 375 900 325 900 q 438 888 408 900 q 490 855 468 876 q 525 805 512 834 q 538 741 538 776 q 513 643 538 697 q 454 536 487 588 q 385 436 420 483 q 326 359 350 390 l 125 84 q 110 61 116 73 q 104 38 104 48 q 120 10 104 20 q 161 0 137 0 "},"ü":{"x_min":104.171875,"x_max":659.78125,"ha":764,"o":"m 513 841 q 555 858 538 841 q 572 898 572 875 q 555 940 572 923 q 515 957 538 957 q 474 939 491 957 q 456 898 456 922 q 473 858 456 875 q 513 841 490 841 m 250 841 q 291 858 273 841 q 308 898 308 875 q 291 939 308 922 q 250 957 273 957 q 209 939 225 957 q 193 897 193 922 q 209 857 193 873 q 250 841 226 841 m 381 -13 q 588 55 516 -13 q 659 259 659 124 l 659 675 q 647 708 659 695 q 616 721 636 721 q 586 709 598 721 q 573 677 573 696 l 573 262 q 527 114 573 168 q 381 60 480 60 q 237 115 283 60 q 191 262 191 170 l 191 695 l 104 694 l 104 259 q 175 55 104 124 q 381 -13 247 -13 "},"¯":{"x_min":15.28125,"x_max":391.703125,"ha":404,"o":"m 348 813 q 379 825 366 813 q 391 854 391 837 q 379 882 391 870 q 350 894 366 894 l 55 894 q 27 882 38 894 q 15 854 15 870 q 27 826 15 837 q 56 815 38 815 l 348 813 "},"Z":{"x_min":59.734375,"x_max":745.890625,"ha":800,"o":"m 698 0 q 732 11 718 0 q 745 38 745 23 q 732 65 745 54 q 698 77 718 77 l 163 77 l 704 887 q 718 913 712 901 q 725 936 725 925 q 693 965 725 958 q 659 969 676 969 q 626 969 643 969 l 77 969 l 77 894 l 605 894 l 70 87 q 59 52 59 69 q 81 11 59 23 q 137 0 104 0 l 698 0 "},"u":{"x_min":104.171875,"x_max":659.78125,"ha":764,"o":"m 381 -13 q 588 55 516 -13 q 659 259 659 124 l 659 675 q 647 708 659 695 q 616 721 636 721 q 586 709 598 721 q 573 677 573 696 l 573 262 q 527 114 573 168 q 381 60 480 60 q 237 115 283 60 q 191 262 191 170 l 191 695 l 104 694 l 104 259 q 175 55 104 124 q 381 -13 247 -13 "},"˜":{"x_min":12.5,"x_max":388.921875,"ha":401,"o":"m 345 813 q 376 825 363 813 q 388 854 388 837 q 376 882 388 870 q 347 894 363 894 l 52 894 q 24 882 36 894 q 12 854 12 870 q 24 826 12 837 q 54 815 36 815 l 345 813 "},"Ó":{"x_min":66.671875,"x_max":908.40625,"ha":975,"o":"m 601 1136 q 621 1152 613 1141 q 629 1176 629 1163 q 618 1204 629 1193 q 588 1215 607 1215 q 551 1205 579 1215 q 487 1182 523 1195 q 422 1155 452 1168 q 376 1136 391 1143 q 356 1120 365 1132 q 348 1095 348 1108 q 360 1068 348 1079 q 390 1057 372 1057 q 427 1066 400 1057 q 491 1090 455 1076 q 555 1117 525 1104 q 601 1136 586 1130 m 487 -13 q 668 28 588 -13 q 800 139 747 70 q 880 298 852 207 q 908 484 908 388 q 881 669 908 580 q 800 828 854 759 q 668 939 747 898 q 488 981 590 981 q 307 940 386 981 q 175 830 229 899 q 94 672 122 762 q 66 485 66 582 q 93 299 66 389 q 174 139 120 209 q 306 28 227 70 q 487 -13 384 -13 m 483 907 q 638 867 576 907 q 738 764 701 827 q 792 624 776 701 q 808 472 808 547 q 790 325 808 398 q 733 193 772 252 q 632 97 694 134 q 483 61 570 61 q 335 101 395 61 q 237 203 275 141 q 184 340 200 265 q 168 484 168 415 q 184 629 168 554 q 237 766 200 704 q 335 867 275 827 q 483 907 395 907 "},"k":{"x_min":104.171875,"x_max":632,"ha":646,"o":"m 565 -5 l 632 45 l 263 409 l 568 647 q 588 683 588 663 q 577 710 588 698 q 551 722 566 722 q 512 704 533 722 l 191 438 l 191 1007 q 179 1039 191 1026 q 148 1052 166 1052 q 117 1039 130 1052 q 104 1008 104 1026 l 104 1 l 190 0 l 190 377 l 565 -5 "},"Ù":{"x_min":104.171875,"x_max":844.515625,"ha":949,"o":"m 572 1058 q 601 1069 590 1058 q 612 1095 612 1080 q 584 1136 612 1125 q 538 1154 569 1141 q 473 1182 508 1168 q 409 1206 437 1197 q 370 1215 381 1215 q 343 1204 354 1215 q 331 1177 331 1193 q 359 1137 331 1148 q 405 1118 375 1132 q 470 1091 436 1105 q 534 1068 506 1077 q 572 1058 562 1058 m 475 -13 q 622 11 554 -13 q 739 81 690 36 q 816 193 788 127 q 844 338 844 258 l 844 933 q 831 966 844 952 q 800 979 818 979 q 768 966 780 979 q 755 933 755 952 l 755 337 q 734 223 755 275 q 677 136 713 172 q 588 79 640 100 q 475 59 537 59 q 360 79 412 59 q 270 135 308 98 q 213 223 233 172 q 193 337 193 275 l 193 973 l 104 973 l 104 338 q 131 193 104 258 q 209 81 159 127 q 326 11 258 36 q 475 -13 394 -13 "},"Ÿ":{"x_min":18.0625,"x_max":683.390625,"ha":703,"o":"m 483 1062 q 526 1078 509 1062 q 543 1119 543 1094 q 525 1161 543 1144 q 483 1177 508 1177 q 443 1160 459 1177 q 427 1119 427 1143 q 444 1079 427 1095 q 483 1062 461 1062 m 220 1062 q 261 1079 244 1062 q 277 1120 277 1097 q 261 1161 277 1144 q 220 1177 244 1177 q 178 1161 195 1177 q 161 1119 161 1144 q 178 1078 161 1094 q 220 1062 195 1062 m 18 932 q 19 928 18 930 l 305 457 l 305 34 q 318 0 305 14 q 351 -13 331 -13 q 384 0 370 -13 q 397 34 397 14 l 397 457 l 675 913 q 683 939 683 927 q 670 967 683 956 q 640 978 658 978 q 598 955 613 978 l 351 545 l 93 981 l 18 932 "},"¢":{"x_min":65.28125,"x_max":573.65625,"ha":625,"o":"m 534 605 q 561 619 550 605 q 573 648 573 633 q 553 685 573 670 q 505 709 533 700 q 449 721 477 718 q 404 725 420 725 q 386 725 395 725 q 355 722 376 725 q 356 765 355 750 q 358 794 358 780 q 359 820 358 805 q 345 836 359 836 q 335 831 338 836 q 330 819 331 826 q 329 805 329 812 q 330 793 330 798 q 332 761 330 777 q 334 719 334 744 q 219 672 269 708 q 134 586 169 636 q 82 476 100 536 q 65 358 65 416 q 81 236 65 297 q 130 123 97 175 q 214 37 163 72 q 334 -5 265 2 q 333 -44 334 -29 q 331 -73 331 -59 q 331 -86 331 -79 q 331 -101 330 -94 q 335 -113 331 -108 q 345 -118 338 -118 q 359 -102 359 -118 q 358 -76 358 -86 q 356 -48 358 -63 q 355 -8 355 -33 q 402 -4 376 -9 q 456 8 429 0 q 509 27 483 16 q 555 45 536 37 l 526 106 q 513 102 526 106 q 486 91 501 97 q 456 81 470 86 q 440 76 443 76 l 427 73 q 412 70 420 70 q 402 70 405 70 q 383 71 393 70 q 355 76 373 72 l 355 641 q 382 645 373 644 q 398 645 391 645 q 430 642 415 645 q 461 633 445 638 q 486 623 473 629 q 512 611 500 618 q 534 605 525 605 m 334 637 l 334 77 q 250 134 283 102 q 198 204 218 166 q 171 282 179 241 q 163 366 163 323 q 172 444 163 404 q 200 522 180 484 q 252 590 219 559 q 334 637 284 620 "},"ß":{"x_min":104.171875,"x_max":700.0625,"ha":776,"o":"m 452 -13 q 557 13 511 -13 q 635 85 604 41 q 683 184 666 129 q 700 295 700 240 q 688 381 700 338 q 651 460 676 423 q 586 525 626 497 q 493 569 547 552 q 592 670 563 613 q 620 784 620 726 q 602 888 620 840 q 552 972 584 937 q 473 1028 519 1008 q 370 1048 427 1048 q 252 1027 302 1048 q 169 966 202 1005 q 120 872 136 926 q 104 752 104 818 l 104 -294 l 190 -294 l 190 769 q 200 847 190 811 q 232 912 211 884 q 288 956 254 940 q 368 972 322 972 q 441 954 409 972 q 493 908 472 936 q 523 845 513 880 q 533 775 533 809 q 500 657 533 700 q 395 594 468 613 q 390 589 393 591 q 384 586 387 587 q 375 574 377 579 q 372 558 372 569 q 377 541 372 547 q 398 530 383 536 q 435 519 413 523 q 479 508 456 515 q 525 485 502 500 q 566 446 548 470 q 594 385 583 422 q 605 295 605 348 q 595 200 605 238 q 567 138 584 162 q 527 101 550 113 q 480 83 505 88 q 439 75 459 77 q 402 66 419 73 q 384 55 390 62 q 377 33 377 48 q 400 -2 377 9 q 452 -13 423 -13 "},"":{"x_min":83.34375,"x_max":898.6875,"ha":1138,"o":"m 861 -165 l 898 -2 l 866 -2 q 804 -113 838 -72 q 725 -175 769 -154 q 625 -202 680 -195 q 501 -208 569 -208 l 208 -208 l 700 355 l 251 968 l 465 968 q 601 956 543 968 q 702 915 659 944 q 775 836 745 886 q 829 713 805 787 l 862 713 l 843 876 q 832 944 837 919 q 814 982 827 969 q 776 999 801 995 q 708 1002 751 1002 l 100 1002 l 609 302 l 83 -300 l 719 -300 q 814 -262 782 -300 q 861 -165 847 -225 "},"é":{"x_min":66.671875,"x_max":690.328125,"ha":747,"o":"m 487 877 q 507 894 500 883 q 515 918 515 905 q 504 945 515 934 q 475 957 493 957 q 437 947 465 957 q 373 923 409 937 q 308 897 338 909 q 262 877 277 884 q 243 861 251 873 q 234 837 234 850 q 246 809 234 820 q 276 798 258 798 q 313 808 286 798 q 377 832 341 818 q 441 859 411 845 q 487 877 472 872 m 632 323 q 678 332 666 323 q 690 373 690 341 q 668 502 690 440 q 607 613 647 565 q 511 691 568 662 q 387 720 455 720 q 254 690 313 720 q 154 609 195 659 q 89 493 112 559 q 66 356 66 427 q 88 214 66 281 q 153 96 111 147 q 256 15 195 45 q 397 -13 318 -13 q 481 -4 443 -13 q 562 22 519 5 l 543 87 q 472 70 508 77 q 401 62 437 62 q 306 82 350 62 q 232 138 263 102 q 184 221 201 173 q 166 323 166 269 l 632 323 m 384 652 q 474 629 434 652 q 541 567 513 605 q 581 481 568 529 q 597 384 595 433 l 161 384 q 182 483 168 434 q 223 569 197 531 q 288 629 250 607 q 384 652 327 652 "},"":{"x_min":36.109375,"x_max":726.453125,"ha":763,"o":"m 534 333 q 634 353 586 333 q 726 402 682 373 l 726 470 q 639 418 686 441 q 541 394 593 394 q 467 405 505 394 q 394 427 429 416 q 318 450 355 440 q 243 459 280 459 q 136 438 187 459 q 36 387 84 418 l 36 318 q 129 374 80 350 q 236 398 179 398 q 314 388 276 398 q 391 365 352 377 q 462 343 426 354 q 534 333 498 333 m 534 168 q 634 187 587 168 q 726 237 682 206 l 726 306 q 638 254 687 279 q 541 229 590 229 q 503 232 522 229 q 466 240 484 236 q 411 256 438 247 q 356 275 384 266 q 301 289 329 283 q 244 295 273 295 q 136 274 188 295 q 36 222 84 252 l 36 152 q 79 181 56 166 q 127 206 102 195 q 177 225 151 218 q 229 233 202 233 q 311 222 270 233 q 388 200 351 212 q 460 178 423 188 q 534 168 497 168 "},"s":{"x_min":52.78125,"x_max":563.9375,"ha":620,"o":"m 305 -11 q 397 2 351 -11 q 480 40 443 15 q 541 102 518 65 q 563 189 563 140 q 528 291 563 251 q 442 359 493 330 q 334 407 391 387 q 236 450 277 427 q 186 484 208 465 q 165 534 165 504 q 178 586 165 565 q 212 622 191 608 q 258 642 233 636 q 306 648 283 648 q 378 636 345 648 q 436 609 411 623 q 459 596 448 602 q 481 586 470 590 q 508 576 500 576 q 534 583 523 576 q 545 605 545 590 q 517 656 545 634 q 450 692 488 677 q 372 714 412 707 q 311 722 333 722 q 225 709 268 722 q 150 673 183 697 q 95 614 116 648 q 75 534 75 579 q 90 469 75 497 q 131 420 105 441 q 191 382 156 398 q 263 350 226 365 q 301 336 283 343 q 337 322 319 329 q 372 307 356 315 q 404 290 388 298 q 453 248 433 272 q 473 189 473 225 q 457 132 473 157 q 418 93 441 108 q 366 70 394 77 q 313 62 338 62 q 247 70 276 62 q 194 91 219 77 q 147 122 170 104 q 128 136 137 129 q 108 150 119 143 l 52 90 q 104 46 73 65 q 168 15 134 27 q 238 -4 202 2 q 305 -11 273 -11 "},"B":{"x_min":104.171875,"x_max":704.21875,"ha":757,"o":"m 416 0 q 530 20 477 0 q 621 78 583 41 q 682 166 659 115 q 704 280 704 218 q 690 365 704 325 q 645 436 676 405 q 566 488 615 468 q 447 515 516 509 q 535 559 501 536 q 589 609 569 583 q 616 663 609 634 q 623 726 623 693 q 603 826 623 782 q 548 902 583 870 q 466 952 513 934 q 365 969 419 969 l 152 969 q 104 926 104 969 l 104 0 l 416 0 m 348 891 q 416 879 383 891 q 475 844 450 866 q 516 790 501 822 q 531 720 531 758 q 514 646 531 679 q 468 591 497 613 q 404 556 440 568 q 333 544 369 544 l 194 544 l 194 891 l 348 891 m 400 479 q 479 463 441 479 q 546 421 518 448 q 592 357 575 394 q 609 277 609 320 q 592 197 609 234 q 546 134 575 161 q 479 91 518 106 q 400 76 441 76 l 193 76 l 193 479 l 400 479 "},"…":{"x_min":72.234375,"x_max":722.28125,"ha":795,"o":"m 662 -12 q 704 5 686 -12 q 722 47 722 23 q 704 88 722 70 q 662 106 686 106 q 620 89 637 106 q 602 47 602 72 q 620 4 602 22 q 662 -12 637 -12 m 397 -12 q 439 4 422 -12 q 456 47 456 22 q 439 89 456 72 q 397 106 422 106 q 354 89 372 106 q 337 47 337 72 q 354 4 337 22 q 397 -12 372 -12 m 131 -12 q 174 4 156 -12 q 191 47 191 22 q 174 89 191 72 q 131 106 156 106 q 89 89 106 106 q 72 47 72 72 q 89 4 72 22 q 131 -12 106 -12 "},"?":{"x_min":45.84375,"x_max":580.609375,"ha":646,"o":"m 340 488 q 516 575 451 506 q 580 747 580 643 q 558 851 580 805 q 497 928 536 897 q 407 975 458 959 q 300 991 356 991 q 184 970 240 991 q 91 904 129 950 q 59 854 72 880 q 45 801 45 829 q 56 763 45 777 q 87 750 68 750 q 118 763 106 750 q 127 782 123 772 q 134 802 131 793 l 134 805 q 205 886 159 863 q 306 908 251 908 q 373 897 341 908 q 429 864 405 886 q 466 812 452 843 q 480 744 480 782 q 469 674 480 702 q 441 626 458 645 q 401 595 423 607 q 356 577 379 584 q 316 566 336 570 q 280 555 295 562 q 260 544 265 550 q 255 530 255 538 l 255 202 l 340 201 l 340 488 m 298 -19 q 339 -3 322 -19 q 356 36 356 12 q 340 77 356 61 q 298 93 323 93 q 257 76 273 93 q 241 34 241 59 q 258 -3 241 12 q 298 -19 275 -19 "},"H":{"x_min":104.171875,"x_max":845.90625,"ha":950,"o":"m 798 -13 q 832 0 818 -13 q 845 31 845 12 l 845 970 l 755 970 l 755 534 l 193 534 l 193 934 q 180 966 193 953 q 150 980 168 980 q 117 966 130 980 q 104 934 104 953 l 104 0 l 193 -1 l 193 459 l 755 459 l 755 30 q 768 0 755 13 q 798 -13 782 -13 "},"î":{"x_min":-68.0625,"x_max":331.96875,"ha":264,"o":"m 288 800 q 319 812 306 800 q 331 841 331 825 q 306 880 331 870 l 156 936 q 143 941 152 937 q 130 944 134 944 q 118 941 126 944 q 105 936 109 937 l -41 877 q -68 838 -68 866 q -56 811 -68 822 q -29 800 -44 800 q 0 806 -19 800 q 45 823 20 812 q 92 844 69 834 q 131 861 115 854 q 170 843 148 854 q 215 823 191 833 q 258 806 238 812 q 288 800 277 800 m 105 -1 l 191 -1 l 191 679 q 179 709 191 695 q 151 722 166 722 q 118 710 131 722 q 105 679 105 698 l 105 -1 "},"c":{"x_min":66.671875,"x_max":584.765625,"ha":625,"o":"m 544 594 l 584 665 q 493 707 536 693 q 391 722 450 722 q 253 692 313 722 q 151 611 193 662 q 88 494 109 561 q 66 352 66 427 q 87 213 66 279 q 149 97 108 147 q 249 18 190 47 q 384 -11 308 -11 q 435 -8 404 -11 q 496 2 466 -5 q 547 27 526 11 q 569 72 569 44 q 557 98 569 87 q 530 109 545 109 q 506 104 522 109 q 489 97 498 101 q 470 89 480 93 q 429 73 451 80 q 383 66 406 66 q 284 95 326 66 q 215 167 243 123 q 175 261 188 211 q 162 358 162 312 q 175 459 162 408 q 215 551 187 509 q 286 618 243 593 q 391 644 330 644 q 470 629 431 644 q 544 594 508 614 "},"¶":{"x_min":84.734375,"x_max":763.953125,"ha":849,"o":"m 738 927 q 763 948 763 932 q 757 963 763 957 q 741 969 750 969 l 338 969 q 239 949 286 969 q 158 894 193 929 q 104 812 123 859 q 84 712 84 765 q 104 612 84 659 q 158 530 123 565 q 239 475 193 495 q 338 455 286 455 l 450 455 l 450 -293 l 495 -293 l 497 926 l 619 927 l 618 -294 l 665 -293 l 666 927 q 692 927 683 927 q 709 926 701 926 q 723 926 716 926 q 738 927 732 926 "},"•":{"x_min":141.671875,"x_max":366.703125,"ha":422,"o":"m 254 372 q 334 404 301 372 q 366 484 366 437 q 334 564 366 531 q 254 597 301 597 q 175 563 208 597 q 141 484 141 530 q 175 405 141 438 q 254 372 208 372 "},"¥":{"x_min":69.453125,"x_max":733.390625,"ha":803,"o":"m 725 913 q 733 940 733 927 q 720 968 733 957 q 690 979 708 979 q 648 955 663 979 l 401 545 l 154 955 q 111 979 138 979 q 81 967 94 979 q 69 940 69 955 q 76 913 69 925 l 302 540 l 118 538 l 116 502 l 326 504 l 352 458 l 356 411 l 116 411 l 116 373 l 354 375 l 352 -2 l 444 -2 l 444 375 l 684 376 q 698 381 693 376 q 704 394 704 387 q 684 412 704 412 l 444 412 l 444 458 l 472 504 l 683 505 q 697 511 691 505 q 704 523 704 516 q 683 541 704 541 l 497 541 l 725 913 "},"(":{"x_min":86.125,"x_max":243.078125,"ha":283,"o":"m 159 498 q 165 624 159 552 q 183 771 172 696 q 209 917 194 846 q 243 1044 225 989 l 169 1056 q 109 779 131 917 q 86 498 86 641 q 88 427 86 477 q 95 314 90 377 q 110 183 101 251 q 131 58 119 115 q 161 -34 144 2 q 201 -71 179 -71 q 227 -61 216 -71 q 238 -43 238 -52 q 236 -13 238 -27 q 229 16 233 1 q 220 49 225 33 q 211 80 215 65 q 173 288 187 183 q 159 498 159 393 "},"U":{"x_min":104.171875,"x_max":844.515625,"ha":949,"o":"m 473 -13 q 622 11 554 -13 q 739 81 690 36 q 816 193 788 127 q 844 338 844 258 l 844 933 q 831 966 844 952 q 800 979 818 979 q 768 966 780 979 q 755 933 755 952 l 755 337 q 734 223 755 275 q 677 136 713 172 q 588 79 640 100 q 475 59 537 59 q 360 79 412 59 q 270 135 308 98 q 213 223 233 172 q 193 337 193 275 l 193 973 l 104 973 l 104 338 q 131 193 104 258 q 209 81 159 127 q 326 11 258 36 q 473 -13 394 -13 "},"Ñ":{"x_min":104.171875,"x_max":840.34375,"ha":945,"o":"m 618 1072 q 648 1084 636 1072 q 661 1112 661 1095 q 648 1141 661 1129 q 619 1152 636 1152 l 325 1152 q 296 1141 308 1152 q 284 1112 284 1129 q 296 1084 284 1095 q 326 1073 308 1073 l 618 1072 m 795 -13 q 827 -1 815 -13 q 840 30 840 11 l 840 934 q 827 968 840 954 q 794 982 813 982 q 763 968 776 982 q 751 934 751 954 l 752 141 l 187 962 q 150 982 175 982 q 117 968 130 982 q 104 936 104 955 l 104 1 l 193 0 l 193 827 l 758 5 q 795 -13 770 -13 "},"F":{"x_min":104.171875,"x_max":526.4375,"ha":572,"o":"m 197 891 l 526 891 l 526 970 l 156 970 q 118 958 133 970 q 104 923 104 945 l 104 0 l 194 0 l 194 443 l 476 443 q 505 454 493 443 q 518 483 518 466 q 505 510 518 498 q 476 522 493 522 l 197 522 l 197 891 "},":":{"x_min":87.5,"x_max":205.578125,"ha":276,"o":"m 145 451 q 187 468 169 451 q 205 509 205 486 q 187 550 205 533 q 145 566 169 566 q 104 550 122 566 q 87 509 87 533 q 104 468 87 486 q 145 451 122 451 m 145 -18 q 186 -1 169 -18 q 204 38 204 15 q 186 80 204 63 q 144 97 169 97 q 104 79 120 97 q 87 38 87 62 q 104 -1 87 15 q 145 -18 122 -18 "},"Û":{"x_min":104.171875,"x_max":844.515625,"ha":949,"o":"m 630 1058 q 661 1070 648 1058 q 673 1100 673 1083 q 648 1138 673 1129 l 498 1194 q 485 1199 494 1195 q 472 1202 476 1202 q 459 1199 468 1202 q 447 1194 451 1195 l 300 1136 q 273 1097 273 1125 q 285 1069 273 1080 q 312 1058 297 1058 q 342 1064 322 1058 q 387 1082 362 1070 q 434 1102 411 1093 q 473 1119 456 1112 q 511 1102 490 1112 q 556 1082 533 1091 q 600 1064 580 1070 q 630 1058 619 1058 m 475 -13 q 622 11 554 -13 q 739 81 690 36 q 816 193 788 127 q 844 338 844 258 l 844 933 q 831 966 844 952 q 800 979 818 979 q 768 966 780 979 q 755 933 755 952 l 755 337 q 734 223 755 275 q 677 136 713 172 q 588 79 640 100 q 475 59 537 59 q 360 79 412 59 q 270 135 308 98 q 213 223 233 172 q 193 337 193 275 l 193 973 l 104 973 l 104 338 q 131 193 104 258 q 209 81 159 127 q 326 11 258 36 q 475 -13 394 -13 "},"*":{"x_min":60.984375,"x_max":474.671875,"ha":536,"o":"m 458 827 q 474 854 474 834 q 463 881 474 869 q 437 893 452 893 q 420 886 427 893 l 278 775 q 293 882 285 839 q 301 962 301 926 q 291 982 301 973 q 267 992 281 992 q 244 982 253 992 q 234 962 234 973 q 242 882 234 926 q 256 775 249 839 l 115 886 q 98 893 108 893 q 72 882 83 893 q 60 855 60 871 q 77 827 60 834 l 244 756 l 83 688 q 62 656 62 679 q 72 632 62 642 q 97 622 83 622 q 124 633 108 622 q 159 658 141 644 q 200 691 179 673 q 252 733 222 709 l 236 547 l 299 547 l 283 733 q 335 691 313 709 q 376 658 356 673 q 411 633 395 644 q 438 622 427 622 q 462 632 452 622 q 473 656 473 642 q 452 688 473 679 l 291 756 l 458 827 "},"†":{"x_min":87.5,"x_max":815.34375,"ha":871,"o":"m 770 544 q 802 556 788 544 q 815 587 815 569 q 802 618 815 605 q 770 630 790 630 l 476 630 l 476 943 q 464 976 476 962 q 434 990 452 990 q 406 976 418 990 q 394 943 394 962 l 394 630 l 87 630 l 87 544 l 391 544 l 391 -294 l 477 -294 l 477 544 l 770 544 "},"°":{"x_min":84.734375,"x_max":423.640625,"ha":508,"o":"m 254 650 q 320 663 288 650 q 374 699 351 676 q 410 753 397 722 q 423 819 423 784 q 410 885 423 854 q 374 939 397 916 q 320 975 351 962 q 254 988 288 988 q 188 975 219 988 q 134 939 156 962 q 97 885 111 916 q 84 819 84 854 q 97 753 84 784 q 134 699 111 722 q 188 663 156 676 q 254 650 219 650 m 254 959 q 309 948 283 959 q 353 918 334 937 q 383 874 372 900 q 394 819 394 848 q 383 764 394 790 q 353 720 372 738 q 309 690 334 701 q 254 679 283 679 q 199 690 225 679 q 154 720 173 701 q 125 764 136 738 q 113 819 113 790 q 125 874 113 848 q 154 918 136 900 q 199 948 173 937 q 254 959 225 959 "},"V":{"x_min":15.28125,"x_max":762.5625,"ha":789,"o":"m 758 912 q 762 937 762 925 q 750 968 762 955 q 718 980 737 980 q 675 943 688 980 l 395 130 l 100 977 l 15 947 l 344 37 q 363 0 354 11 q 394 -11 372 -11 q 425 0 416 -11 q 444 37 434 11 l 758 912 "},"\u001e":{"x_min":0,"x_max":0,"ha":0},"å":{"x_min":65.28125,"x_max":683.390625,"ha":788,"o":"m 383 811 q 453 837 423 811 q 483 904 483 863 q 454 970 483 943 q 386 997 425 997 q 316 970 345 997 q 287 902 287 943 q 316 838 287 865 q 383 811 345 811 m 595 -5 l 683 -5 l 683 679 q 670 709 683 695 q 643 722 658 722 q 613 716 622 722 q 602 700 605 709 q 597 673 600 691 l 597 595 q 485 694 540 666 q 372 722 430 722 q 243 691 300 722 q 146 608 186 659 q 86 491 106 556 q 65 356 65 425 q 85 220 65 286 q 144 102 105 154 q 240 18 183 50 q 372 -12 297 -12 q 488 20 433 -12 q 595 141 543 54 l 595 -5 m 384 968 q 431 950 412 968 q 451 902 451 932 q 431 857 451 876 q 384 837 412 837 q 338 857 356 837 q 319 904 319 877 q 338 950 319 932 q 384 968 356 968 m 386 651 q 491 625 450 651 q 556 557 531 598 q 590 466 580 516 q 600 366 600 415 q 591 260 600 315 q 558 161 581 205 q 491 87 534 116 q 379 58 447 58 q 274 86 316 58 q 206 159 231 115 q 170 256 180 204 q 159 358 159 309 q 171 459 159 406 q 210 553 183 511 q 280 623 237 595 q 386 651 323 651 "},"":{"x_min":56.953125,"x_max":1091.75,"ha":1129,"o":"m 755 -300 l 1091 -300 l 1091 -275 l 969 -275 l 969 977 l 1091 977 l 1091 1002 l 56 1002 l 56 977 l 179 977 l 179 -275 l 56 -275 l 56 -300 l 393 -300 l 393 -275 l 276 -275 l 276 977 l 872 977 l 872 -275 l 755 -275 l 755 -300 "},"0":{"x_min":66.671875,"x_max":690.328125,"ha":757,"o":"m 377 -13 q 529 37 469 -13 q 625 162 590 87 q 675 327 661 238 q 690 493 690 416 q 675 656 690 570 q 622 814 659 742 q 526 934 586 887 q 377 981 466 981 q 271 958 318 981 q 190 897 225 935 q 131 809 155 859 q 93 703 108 759 q 72 591 79 648 q 66 484 66 535 q 72 376 66 432 q 93 264 79 320 q 131 159 108 209 q 190 71 155 109 q 271 9 225 32 q 377 -13 318 -13 m 377 905 q 457 883 423 905 q 515 825 491 861 q 554 743 538 788 q 577 650 569 697 q 589 559 586 602 q 593 484 593 516 q 589 407 593 451 q 577 316 586 363 q 552 224 568 269 q 513 143 537 179 q 454 84 488 106 q 373 62 419 62 q 296 84 329 62 q 240 143 263 106 q 202 226 216 180 q 179 319 187 272 q 167 409 170 366 q 163 484 163 452 q 167 559 163 516 q 179 650 170 602 q 202 743 187 697 q 241 825 218 788 q 299 883 265 861 q 377 905 333 905 "},"”":{"x_min":29.171875,"x_max":436.140625,"ha":472,"o":"m 430 947 q 436 966 436 958 q 422 997 436 984 q 391 1011 409 1011 q 369 1004 380 1011 q 352 986 358 997 l 237 749 l 318 710 l 430 947 m 222 947 q 227 966 227 958 q 214 997 227 984 q 183 1011 201 1011 q 161 1004 172 1011 q 144 986 150 997 l 29 751 l 109 713 l 222 947 "},"¾":{"x_min":0,"x_max":0,"ha":0},"@":{"x_min":76.390625,"x_max":998.6875,"ha":1070,"o":"m 625 116 q 631 68 622 90 q 657 30 640 45 q 696 6 673 15 q 744 -2 719 -2 q 859 38 811 -2 q 938 138 907 79 q 984 266 969 198 q 998 387 998 334 q 968 559 998 480 q 881 696 937 638 q 747 786 825 754 q 576 819 669 819 q 377 777 469 819 q 219 663 286 734 q 114 497 152 591 q 76 298 76 402 q 115 106 76 200 q 220 -60 154 12 q 377 -178 287 -133 q 568 -223 466 -223 l 566 -168 q 511 -160 543 -168 q 455 -144 479 -152 q 170 162 231 -66 q 154 294 154 226 q 184 469 154 386 q 271 616 215 552 q 406 718 327 680 q 580 757 484 757 q 725 728 661 757 q 836 650 790 700 q 906 534 882 601 q 930 388 930 466 q 926 322 930 359 q 913 250 922 286 q 889 180 904 213 q 855 125 875 147 q 809 78 836 102 q 752 54 783 54 q 720 62 733 54 q 701 84 708 70 q 691 113 694 97 q 688 144 688 129 q 695 227 688 184 q 709 309 702 269 q 736 460 722 384 q 763 611 750 536 l 697 611 l 683 529 q 636 593 672 569 q 559 618 600 618 q 448 579 495 618 q 370 482 401 540 q 325 360 340 425 q 309 244 309 295 q 318 162 309 204 q 347 86 327 120 q 401 31 368 52 q 483 9 434 9 q 528 18 505 9 q 570 40 551 26 q 603 75 588 55 q 625 116 618 94 m 484 63 q 434 78 452 63 q 404 115 415 93 q 391 165 394 138 q 387 218 387 193 q 395 313 387 255 q 424 425 404 370 q 477 518 444 479 q 561 558 511 558 q 602 547 584 558 q 632 520 620 537 q 650 481 644 502 q 657 440 657 461 q 653 381 657 418 q 641 302 650 344 q 618 218 632 261 q 586 141 605 176 q 542 85 568 106 q 484 63 516 63 "},"ö":{"x_min":66.671875,"x_max":691.71875,"ha":760,"o":"m 511 840 q 552 857 534 840 q 569 898 569 875 q 553 938 569 922 q 513 955 537 955 q 472 938 490 955 q 455 897 455 920 q 471 857 455 873 q 511 840 487 840 m 247 840 q 288 857 270 840 q 305 897 305 873 q 287 938 305 920 q 245 955 269 955 q 206 938 222 955 q 190 897 190 922 q 206 857 190 873 q 247 840 223 840 m 380 -15 q 511 16 454 -15 q 609 100 569 48 q 670 219 650 152 q 691 355 691 286 q 670 491 691 425 q 608 608 648 556 q 510 691 568 659 q 379 722 452 722 q 247 691 305 722 q 150 609 190 659 q 88 492 109 558 q 66 356 66 426 q 87 218 66 286 q 148 99 108 151 q 247 15 188 47 q 380 -15 305 -15 m 377 648 q 481 620 438 648 q 549 549 523 593 q 586 453 575 505 q 598 354 598 401 q 586 253 598 305 q 549 158 575 201 q 481 87 523 115 q 376 59 438 59 q 275 88 316 59 q 209 161 234 118 q 172 256 183 205 q 161 354 161 308 q 172 451 161 400 q 209 546 183 502 q 276 619 234 590 q 377 648 318 648 "},"i":{"x_min":105.5625,"x_max":191.6875,"ha":297,"o":"m 147 868 q 172 877 162 868 q 181 902 181 887 q 172 926 181 916 q 147 936 162 936 q 122 926 131 936 q 112 901 112 916 q 122 877 112 887 q 147 868 131 868 m 105 -1 l 191 -1 l 191 679 q 179 709 191 695 q 151 722 166 722 q 118 710 131 722 q 105 679 105 698 l 105 -1 "},"Õ":{"x_min":66.671875,"x_max":908.40625,"ha":975,"o":"m 633 1072 q 663 1084 651 1072 q 676 1112 676 1095 q 663 1141 676 1129 q 634 1152 651 1152 l 340 1152 q 311 1141 323 1152 q 300 1112 300 1129 q 311 1084 300 1095 q 341 1073 323 1073 l 633 1072 m 487 -13 q 668 28 588 -13 q 800 139 747 70 q 880 298 852 207 q 908 484 908 388 q 881 669 908 580 q 800 828 854 759 q 668 939 747 898 q 488 981 590 981 q 307 940 386 981 q 175 830 229 899 q 94 672 122 762 q 66 485 66 582 q 93 299 66 389 q 174 139 120 209 q 306 28 227 70 q 487 -13 384 -13 m 483 907 q 638 867 576 907 q 738 764 701 827 q 792 624 776 701 q 808 472 808 547 q 790 325 808 398 q 733 193 772 252 q 632 97 694 134 q 483 61 570 61 q 335 101 395 61 q 237 203 275 141 q 184 340 200 265 q 168 484 168 415 q 184 629 168 554 q 237 766 200 704 q 335 867 275 827 q 483 907 395 907 "},"þ":{"x_min":0,"x_max":0,"ha":0},"]":{"x_min":72.234375,"x_max":256.96875,"ha":318,"o":"m 220 -59 q 245 -47 234 -59 q 256 -19 256 -34 l 256 988 q 245 1016 256 1004 q 220 1029 234 1029 l 108 1029 q 82 1018 93 1029 q 72 993 72 1008 q 95 962 72 966 q 125 958 108 958 l 170 958 l 170 11 l 95 11 l 95 -59 l 220 -59 "},"m":{"x_min":104.171875,"x_max":1070.921875,"ha":1175,"o":"m 1027 -13 q 1058 0 1045 -13 q 1070 31 1070 13 l 1070 477 q 1003 655 1070 589 q 823 720 936 720 q 698 687 757 720 q 597 574 640 653 q 506 688 562 653 q 388 723 451 723 q 338 719 363 723 q 288 703 313 714 q 238 669 263 691 q 188 610 213 646 q 188 644 188 632 q 188 662 188 656 q 188 670 188 667 q 187 677 187 673 q 183 700 187 692 q 172 716 180 710 q 148 721 165 721 q 117 708 130 721 q 104 677 104 695 l 104 0 l 191 0 l 191 474 q 205 542 191 510 q 243 598 219 574 q 299 637 266 623 q 368 650 331 650 q 438 637 405 650 q 495 598 470 623 q 533 542 519 574 q 547 473 547 510 l 547 0 l 632 0 l 632 473 q 645 541 632 509 q 684 598 659 574 q 741 637 708 623 q 809 650 773 650 q 879 637 847 650 q 934 598 911 623 q 971 541 958 574 q 984 473 984 509 l 984 31 q 997 0 984 13 q 1027 -13 1009 -13 "},"8":{"x_min":93,"x_max":664,"ha":757,"o":"m 377 -17 q 494 6 441 -17 q 584 71 547 30 q 643 167 622 112 q 664 287 664 223 q 652 367 664 327 q 618 440 641 406 q 557 499 594 473 q 466 541 519 526 q 579 641 541 583 q 618 759 618 699 q 599 852 618 809 q 548 925 580 894 q 472 972 516 955 q 379 989 429 989 q 284 972 329 989 q 208 925 240 955 q 157 852 176 894 q 138 759 138 809 q 174 642 138 695 q 286 540 211 588 q 198 499 234 524 q 138 439 162 473 q 104 366 115 405 q 93 287 93 327 q 113 167 93 223 q 170 71 133 112 q 260 6 208 30 q 377 -17 312 -17 m 377 916 q 441 903 412 916 q 490 868 469 890 q 522 816 511 845 q 534 754 534 787 q 523 691 534 722 q 492 635 512 659 q 443 596 472 611 q 379 581 415 581 q 313 596 343 581 q 264 634 284 611 q 234 689 244 658 q 223 752 223 720 q 234 815 223 786 q 265 867 245 844 q 313 903 284 890 q 377 916 341 916 m 377 502 q 457 485 422 502 q 517 439 492 467 q 554 373 541 410 q 568 295 568 335 q 556 214 568 255 q 520 140 544 173 q 461 85 497 106 q 377 65 426 65 q 295 85 330 65 q 237 137 260 105 q 201 210 213 170 q 190 290 190 249 q 201 369 190 331 q 237 437 213 408 q 295 484 260 466 q 377 502 330 502 "},"R":{"x_min":104.171875,"x_max":705.609375,"ha":740,"o":"m 638 -26 l 705 27 l 308 443 q 327 442 311 443 q 363 441 343 441 q 390 440 384 440 q 501 456 448 440 q 593 503 554 472 q 657 581 633 534 q 680 688 680 627 q 658 803 680 751 q 596 892 636 855 q 503 949 556 929 q 387 969 450 969 q 245 967 316 969 q 104 970 175 965 l 104 33 q 117 0 104 13 q 150 -13 130 -13 q 181 0 168 -13 q 194 30 194 12 l 194 466 l 638 -26 m 383 888 q 460 873 423 888 q 525 832 497 858 q 570 769 554 805 q 587 691 587 733 q 572 619 587 652 q 532 561 558 586 q 472 521 506 536 q 401 506 438 506 l 194 506 l 194 888 l 383 888 "},"á":{"x_min":65.28125,"x_max":683.390625,"ha":788,"o":"m 506 877 q 527 894 519 883 q 534 918 534 905 q 523 945 534 934 q 494 957 512 957 q 456 947 484 957 q 393 923 429 937 q 327 897 358 909 q 281 877 297 884 q 262 861 270 873 q 254 837 254 850 q 265 809 254 820 q 295 798 277 798 q 333 808 305 798 q 397 832 361 818 q 461 859 430 845 q 506 877 491 872 m 595 -5 l 683 -5 l 683 679 q 670 709 683 695 q 643 722 658 722 q 613 716 622 722 q 602 700 605 709 q 597 673 600 691 l 597 595 q 485 694 540 666 q 372 722 430 722 q 243 691 300 722 q 146 608 186 659 q 86 491 106 556 q 65 356 65 425 q 85 220 65 286 q 144 102 105 154 q 240 18 183 50 q 372 -12 297 -12 q 488 20 433 -12 q 595 141 543 54 l 595 -5 m 386 651 q 491 625 450 651 q 556 557 531 598 q 590 466 580 516 q 600 366 600 415 q 591 260 600 315 q 558 161 581 205 q 491 87 534 116 q 379 58 447 58 q 274 86 316 58 q 206 159 231 115 q 170 256 180 204 q 159 358 159 309 q 171 459 159 406 q 210 553 183 511 q 280 623 237 595 q 386 651 323 651 "},"×":{"x_min":0,"x_max":0,"ha":0},"o":{"x_min":66.671875,"x_max":691.71875,"ha":760,"o":"m 380 -15 q 511 16 454 -15 q 609 100 569 48 q 670 219 650 152 q 691 355 691 286 q 670 491 691 425 q 608 608 648 556 q 510 691 568 659 q 379 722 452 722 q 247 691 305 722 q 150 609 190 659 q 88 492 109 558 q 66 356 66 426 q 87 218 66 286 q 148 99 108 151 q 247 15 188 47 q 380 -15 305 -15 m 377 648 q 481 620 438 648 q 549 550 523 593 q 586 456 575 508 q 598 356 598 404 q 587 256 598 308 q 550 160 576 204 q 481 88 523 116 q 376 59 438 59 q 275 88 316 59 q 209 161 234 118 q 172 257 183 205 q 161 355 161 309 q 172 452 161 401 q 210 547 184 504 q 277 620 236 591 q 377 648 318 648 "},"5":{"x_min":77.78125,"x_max":652.828125,"ha":757,"o":"m 350 -13 q 476 13 420 -13 q 571 88 531 41 q 631 196 611 134 q 652 326 652 258 q 634 436 652 383 q 583 528 616 488 q 502 591 550 568 q 395 615 454 615 q 337 608 368 615 q 262 581 306 601 l 311 891 l 633 891 l 644 969 l 287 969 q 259 968 269 969 q 242 961 248 966 q 233 945 236 955 q 227 918 230 936 l 175 561 q 172 544 173 552 q 170 527 170 536 q 181 506 170 516 q 204 495 191 495 q 215 497 209 495 q 229 501 220 498 q 245 508 237 504 q 263 516 254 512 q 306 531 283 523 q 356 538 330 538 q 441 521 404 538 q 502 473 477 504 q 540 403 527 443 q 552 320 552 363 q 540 233 552 277 q 502 152 527 188 q 437 93 476 116 q 347 70 398 70 q 264 88 302 70 q 197 125 226 105 q 170 144 181 134 q 147 161 158 154 q 122 173 127 173 q 90 161 102 173 q 77 131 77 150 q 94 93 77 112 q 134 57 111 73 q 181 29 156 41 q 222 11 205 16 q 286 -6 254 0 q 350 -13 318 -13 "},"õ":{"x_min":66.671875,"x_max":691.71875,"ha":760,"o":"m 525 813 q 555 825 543 813 q 568 854 568 837 q 555 882 568 870 q 526 894 543 894 l 231 894 q 203 882 215 894 q 191 854 191 870 q 203 826 191 837 q 233 815 215 815 l 525 813 m 380 -15 q 511 16 454 -15 q 609 100 569 48 q 670 219 650 152 q 691 355 691 286 q 670 491 691 425 q 608 608 648 556 q 510 691 568 659 q 379 722 452 722 q 247 691 305 722 q 150 609 190 659 q 88 492 109 558 q 66 356 66 426 q 87 218 66 286 q 148 99 108 151 q 247 15 188 47 q 380 -15 305 -15 m 377 648 q 481 620 438 648 q 549 550 523 593 q 586 456 575 508 q 598 356 598 404 q 587 256 598 308 q 550 160 576 204 q 481 88 523 116 q 376 59 438 59 q 275 88 316 59 q 209 161 234 118 q 172 257 183 205 q 161 355 161 309 q 172 452 161 401 q 210 547 184 504 q 277 620 236 591 q 377 648 318 648 "},"7":{"x_min":106.953125,"x_max":669.5,"ha":757,"o":"m 665 908 q 669 929 669 918 q 657 957 669 947 q 623 968 644 968 l 106 969 l 106 888 l 566 888 l 193 45 q 190 29 190 40 q 202 -1 190 11 q 233 -13 215 -13 q 258 -6 247 -13 q 275 12 269 1 l 665 908 "},"K":{"x_min":104.171875,"x_max":777.84375,"ha":789,"o":"m 737 -13 q 765 -1 752 -13 q 777 25 777 10 q 761 62 777 46 l 298 513 l 729 916 l 666 973 l 193 525 l 193 937 q 179 969 193 956 q 147 981 166 981 q 116 968 129 981 q 104 937 104 955 l 104 0 l 194 0 l 194 499 l 698 3 q 737 -13 718 -13 "},",":{"x_min":18.0625,"x_max":216.6875,"ha":258,"o":"m 100 -162 l 216 73 l 134 113 l 22 -123 q 18 -143 18 -132 q 30 -174 18 -161 q 61 -188 43 -188 q 100 -162 88 -188 "},"d":{"x_min":66.671875,"x_max":684.78125,"ha":789,"o":"m 641 -13 q 672 0 659 -13 q 684 30 684 12 l 684 1031 l 597 1031 l 597 568 q 491 689 544 656 q 377 721 437 721 q 245 690 302 721 q 147 607 187 659 q 87 489 108 556 q 66 352 66 423 q 86 221 66 285 q 145 104 106 156 q 238 20 183 52 q 363 -11 293 -11 q 484 22 426 -11 q 595 142 541 56 l 595 52 q 600 17 595 31 q 611 -4 602 3 q 641 -13 620 -13 m 383 643 q 492 613 450 643 q 557 539 534 584 q 588 441 580 494 q 597 338 597 387 q 585 240 597 288 q 547 154 573 193 q 478 91 520 115 q 376 68 436 68 q 274 95 315 68 q 207 165 233 123 q 170 259 181 208 q 159 358 159 311 q 172 456 159 405 q 211 548 184 506 q 281 616 238 590 q 383 643 323 643 "},"¨":{"x_min":-25,"x_max":356.96875,"ha":332,"o":"m 297 804 q 340 820 323 804 q 356 861 356 836 q 339 902 356 886 q 297 919 322 919 q 257 902 273 919 q 241 861 241 884 q 258 820 241 837 q 297 804 275 804 m 34 804 q 75 821 58 804 q 91 862 91 838 q 75 902 91 886 q 34 919 58 919 q -7 902 9 919 q -25 861 -25 886 q -7 820 -25 836 q 34 804 9 804 "},"Ô":{"x_min":66.671875,"x_max":908.40625,"ha":975,"o":"m 644 1058 q 675 1070 662 1058 q 687 1100 687 1083 q 662 1138 687 1129 l 512 1194 q 499 1199 508 1195 q 486 1202 490 1202 q 473 1199 481 1202 q 461 1194 465 1195 l 313 1136 q 287 1097 287 1125 q 299 1069 287 1080 q 326 1058 311 1058 q 356 1064 336 1058 q 401 1082 376 1070 q 447 1102 425 1093 q 487 1119 470 1112 q 525 1102 504 1112 q 570 1082 547 1091 q 613 1064 594 1070 q 644 1058 633 1058 m 487 -13 q 668 28 588 -13 q 800 139 747 70 q 880 298 852 207 q 908 484 908 388 q 881 669 908 580 q 800 828 854 759 q 668 939 747 898 q 488 981 590 981 q 307 940 386 981 q 175 830 229 899 q 94 672 122 762 q 66 485 66 582 q 93 299 66 389 q 174 139 120 209 q 306 28 227 70 q 487 -13 384 -13 m 483 907 q 638 867 576 907 q 738 764 701 827 q 792 624 776 701 q 808 472 808 547 q 790 325 808 398 q 733 193 772 252 q 632 97 694 134 q 483 61 570 61 q 335 101 395 61 q 237 203 275 141 q 184 340 200 265 q 168 484 168 415 q 184 629 168 554 q 237 766 200 704 q 335 867 275 827 q 483 907 395 907 "},"E":{"x_min":104.171875,"x_max":583.375,"ha":621,"o":"m 150 0 l 583 0 l 583 79 l 195 79 l 195 444 l 486 444 q 514 456 502 444 q 526 484 526 468 q 514 512 526 501 q 484 523 502 523 l 195 523 l 195 890 l 500 890 q 529 901 518 890 q 541 930 541 912 q 529 957 541 945 q 501 969 518 969 l 151 969 q 127 969 140 969 q 105 970 116 969 l 104 50 q 115 13 104 26 q 150 0 127 0 "},"Y":{"x_min":18.0625,"x_max":683.390625,"ha":703,"o":"m 18 932 q 19 928 18 930 l 305 457 l 305 34 q 318 0 305 14 q 351 -13 331 -13 q 384 0 370 -13 q 397 34 397 14 l 397 457 l 675 913 q 683 939 683 927 q 670 967 683 956 q 640 978 658 978 q 598 955 613 978 l 351 545 l 93 981 l 18 932 "},"\"":{"x_min":86.125,"x_max":312.53125,"ha":399,"o":"m 287 687 l 312 969 l 255 969 l 230 687 l 287 687 m 143 687 l 168 969 l 111 969 l 86 687 l 143 687 "},"‹":{"x_min":69.453125,"x_max":280.578125,"ha":350,"o":"m 247 83 q 270 93 259 83 q 280 116 280 103 q 269 146 280 128 l 143 354 l 270 561 q 279 590 279 573 q 248 625 279 625 q 225 617 237 625 q 206 598 213 609 l 83 387 q 75 372 80 381 q 69 356 69 363 q 77 336 69 349 q 90 316 86 323 l 208 112 q 225 91 215 99 q 247 83 236 83 "},"ê":{"x_min":66.671875,"x_max":690.328125,"ha":747,"o":"m 530 800 q 561 812 548 800 q 573 841 573 825 q 548 880 573 870 l 398 936 q 385 941 394 937 q 372 944 376 944 q 359 941 368 944 q 347 936 351 937 l 200 877 q 173 838 173 866 q 185 811 173 822 q 212 800 197 800 q 242 806 222 800 q 287 823 262 812 q 334 844 311 834 q 373 861 356 854 q 411 843 390 854 q 456 823 433 833 q 500 806 480 812 q 530 800 519 800 m 632 323 q 678 332 666 323 q 690 373 690 341 q 668 502 690 440 q 607 613 647 565 q 511 691 568 662 q 387 720 455 720 q 254 690 313 720 q 154 609 195 659 q 89 493 112 559 q 66 356 66 427 q 88 214 66 281 q 153 96 111 147 q 256 15 195 45 q 397 -13 318 -13 q 481 -4 443 -13 q 562 22 519 5 l 543 87 q 472 70 508 77 q 401 62 437 62 q 306 82 350 62 q 232 138 263 102 q 184 221 201 173 q 166 323 166 269 l 632 323 m 384 652 q 474 629 434 652 q 541 567 513 605 q 581 481 568 529 q 597 384 595 433 l 161 384 q 182 483 168 434 q 223 569 197 531 q 288 629 250 607 q 384 652 327 652 "},"Ï":{"x_min":-41.671875,"x_max":340.3125,"ha":297,"o":"m 280 1062 q 323 1078 306 1062 q 340 1119 340 1094 q 322 1161 340 1144 q 280 1177 305 1177 q 240 1160 256 1177 q 225 1119 225 1143 q 241 1079 225 1095 q 280 1062 258 1062 m 18 1062 q 58 1079 41 1062 q 75 1120 75 1097 q 58 1161 75 1144 q 18 1177 41 1177 q -24 1161 -6 1177 q -41 1119 -41 1144 q -24 1078 -41 1094 q 18 1062 -6 1062 m 104 0 l 193 0 l 193 934 q 180 967 193 954 q 150 980 168 980 q 117 967 130 980 q 104 934 104 954 l 104 0 "},"„":{"x_min":18.0625,"x_max":411.140625,"ha":456,"o":"m 294 -162 l 411 73 l 329 112 l 216 -123 q 212 -143 212 -131 q 225 -174 212 -161 q 255 -187 237 -187 q 294 -162 283 -187 m 100 -162 l 216 73 l 134 113 l 22 -123 q 18 -143 18 -132 q 30 -174 18 -161 q 61 -188 43 -188 q 100 -162 88 -188 "},"Â":{"x_min":29.171875,"x_max":847.296875,"ha":858,"o":"m 586 1058 q 616 1070 604 1058 q 629 1100 629 1083 q 604 1138 629 1129 l 454 1194 q 441 1199 450 1195 q 427 1202 431 1202 q 415 1199 423 1202 q 402 1194 406 1195 l 255 1136 q 229 1097 229 1125 q 240 1069 229 1080 q 268 1058 252 1058 q 297 1064 277 1058 q 343 1082 318 1070 q 389 1102 366 1093 q 429 1119 412 1112 q 467 1102 445 1112 q 512 1082 488 1091 q 555 1064 536 1070 q 586 1058 575 1058 m 757 -11 l 847 15 l 504 915 q 475 965 490 950 q 425 980 459 980 q 381 962 397 980 q 354 915 365 944 l 34 55 q 29 27 29 43 q 40 -2 29 9 q 70 -13 52 -13 q 96 -5 84 -13 q 113 18 108 2 l 187 215 l 670 215 l 757 -11 m 429 895 l 647 290 l 209 290 l 429 895 "},"\u0006":{"x_min":0,"x_max":0,"ha":0},"Í":{"x_min":9.71875,"x_max":290.296875,"ha":297,"o":"m 262 1136 q 282 1152 275 1141 q 290 1176 290 1163 q 279 1204 290 1193 q 250 1215 268 1215 q 212 1205 240 1215 q 148 1182 184 1195 q 83 1155 113 1168 q 37 1136 52 1143 q 18 1120 26 1132 q 9 1095 9 1108 q 21 1068 9 1079 q 51 1057 33 1057 q 88 1066 61 1057 q 152 1090 116 1076 q 216 1117 186 1104 q 262 1136 247 1130 m 104 0 l 193 0 l 193 934 q 180 967 193 954 q 150 980 168 980 q 117 967 130 980 q 104 934 104 954 l 104 0 "},"´":{"x_min":16.671875,"x_max":291.6875,"ha":311,"o":"m 176 839 q 240 866 209 853 q 291 887 272 879 l 263 963 l 44 878 q 25 862 33 874 q 16 837 16 850 q 28 810 16 821 q 58 799 40 799 q 100 810 68 799 q 176 839 133 822 "},"ì":{"x_min":-9.71875,"x_max":270.859375,"ha":264,"o":"m 230 800 q 259 811 248 800 q 270 837 270 822 q 243 877 270 866 q 197 896 227 883 q 131 923 166 909 q 68 947 95 938 q 29 957 40 957 q 1 945 12 957 q -9 919 -9 934 q 18 879 -9 890 q 63 860 33 873 q 129 833 94 847 q 193 809 165 819 q 230 800 220 800 m 105 -1 l 191 -1 l 191 679 q 179 709 191 695 q 151 722 166 722 q 118 710 131 722 q 105 679 105 698 l 105 -1 "},"±":{"x_min":76.390625,"x_max":687.5625,"ha":858,"o":"m 413 365 l 687 365 l 687 429 l 413 429 l 413 598 l 350 598 l 350 429 l 76 429 l 76 365 l 350 365 l 350 195 l 413 195 l 413 365 m 76 26 l 687 26 l 687 90 l 76 90 l 76 26 "},"Ú":{"x_min":104.171875,"x_max":844.515625,"ha":949,"o":"m 587 1136 q 607 1152 600 1141 q 615 1176 615 1163 q 604 1204 615 1193 q 575 1215 593 1215 q 537 1205 565 1215 q 473 1182 509 1195 q 408 1155 438 1168 q 362 1136 377 1143 q 343 1120 351 1132 q 334 1095 334 1108 q 346 1068 334 1079 q 376 1057 358 1057 q 413 1066 386 1057 q 477 1090 441 1076 q 541 1117 511 1104 q 587 1136 572 1130 m 475 -13 q 622 11 554 -13 q 739 81 690 36 q 816 193 788 127 q 844 338 844 258 l 844 933 q 831 966 844 952 q 800 979 818 979 q 768 966 780 979 q 755 933 755 952 l 755 337 q 734 223 755 275 q 677 136 713 172 q 588 79 640 100 q 475 59 537 59 q 360 79 412 59 q 270 135 308 98 q 213 223 233 172 q 193 337 193 275 l 193 973 l 104 973 l 104 338 q 131 193 104 258 q 209 81 159 127 q 326 11 258 36 q 475 -13 394 -13 "},"|":{"x_min":84.734375,"x_max":141.671875,"ha":226,"o":"m 84 0 l 141 0 l 141 969 l 84 969 l 84 0 "},"§":{"x_min":58.34375,"x_max":732,"ha":793,"o":"m 545 73 q 682 170 632 108 q 732 304 732 233 q 711 397 732 356 q 655 468 690 437 q 575 525 620 500 q 481 572 530 550 q 434 593 458 583 q 386 613 409 602 q 341 636 362 625 q 301 659 320 647 q 238 713 263 683 q 213 787 213 744 q 232 850 213 826 q 279 889 251 875 q 340 909 308 904 q 397 915 372 915 q 484 907 450 915 q 545 883 519 900 q 593 838 570 866 q 643 769 615 811 l 705 812 q 648 896 675 862 q 591 952 622 930 q 518 983 559 973 q 413 993 476 993 q 305 983 358 993 q 211 949 252 973 q 144 884 169 925 q 119 783 119 844 q 142 693 119 737 q 218 613 165 650 q 102 508 147 572 q 58 379 58 444 q 78 277 58 320 q 131 202 98 234 q 208 145 165 169 q 298 100 251 120 q 345 79 322 88 q 390 61 368 70 q 472 19 438 38 q 533 -33 508 -4 q 558 -105 558 -62 q 538 -167 558 -143 q 490 -205 519 -191 q 427 -225 461 -219 q 363 -230 393 -230 q 287 -222 318 -230 q 237 -201 256 -215 q 206 -170 218 -187 q 188 -134 194 -154 q 184 -118 186 -126 q 180 -102 183 -109 q 176 -89 177 -95 q 172 -77 175 -83 q 163 -63 169 -68 q 145 -59 158 -59 q 110 -75 123 -59 q 97 -115 97 -91 q 122 -202 97 -165 q 186 -263 147 -238 q 273 -299 225 -287 q 368 -311 322 -311 q 472 -299 420 -311 q 563 -261 523 -287 q 627 -195 602 -236 q 651 -98 651 -155 q 626 -9 651 -52 q 545 73 601 34 m 506 463 q 554 437 530 452 q 598 401 579 422 q 630 354 618 380 q 643 295 643 329 q 625 231 643 259 q 581 179 608 202 q 522 140 554 156 q 462 115 490 125 l 277 208 q 231 234 256 219 q 186 270 206 250 q 151 315 165 290 q 137 373 137 341 q 150 434 137 404 q 183 490 162 463 q 230 538 204 516 q 283 573 256 559 l 506 463 "},"Ý":{"x_min":0,"x_max":0,"ha":0},"b":{"x_min":104.171875,"x_max":718.109375,"ha":785,"o":"m 412 -15 q 546 15 488 -15 q 642 99 604 47 q 699 219 680 151 q 718 359 718 287 q 698 492 718 427 q 641 608 679 556 q 548 691 604 659 q 420 722 493 722 q 304 691 361 722 q 193 586 248 661 l 193 1032 l 104 1032 l 104 30 q 117 -2 104 11 q 148 -15 130 -15 q 175 -7 166 -15 q 186 12 183 0 q 188 27 187 19 q 188 44 188 34 l 188 131 q 296 15 241 47 q 412 -15 351 -15 m 405 647 q 510 620 468 647 q 577 550 552 593 q 613 455 602 506 q 625 355 625 404 q 614 257 625 309 q 579 161 604 205 q 514 89 555 118 q 412 61 473 61 q 304 86 347 61 q 235 154 261 112 q 199 247 209 195 q 188 351 188 298 q 198 452 188 400 q 232 547 208 504 q 298 619 256 591 q 405 647 340 647 "},"q":{"x_min":66.671875,"x_max":683.390625,"ha":788,"o":"m 595 -279 l 683 -279 l 683 693 q 670 724 683 711 q 641 737 658 737 q 611 730 619 737 q 600 712 602 723 q 595 682 595 700 l 595 595 q 484 706 540 675 q 366 737 427 737 q 238 704 294 737 q 143 620 181 672 q 86 502 105 568 q 66 368 66 436 q 87 236 66 301 q 146 119 108 170 q 240 36 184 68 q 368 4 297 4 q 484 34 427 4 q 595 143 540 65 l 595 -279 m 525 604 q 566 548 551 579 q 588 485 580 518 q 597 419 595 452 q 600 354 600 386 q 588 254 600 304 q 550 165 576 205 q 481 102 523 126 q 377 77 438 77 q 275 106 316 77 q 207 179 233 136 q 170 275 181 223 q 159 375 159 327 q 170 473 159 422 q 207 567 181 525 q 275 636 233 609 q 379 663 318 663 q 458 647 420 663 q 525 604 495 632 "},"":{"x_min":38.890625,"x_max":715.328125,"ha":772,"o":"m 715 624 l 711 624 q 691 605 705 613 q 661 593 677 598 q 630 586 645 588 q 607 584 615 584 q 430 588 518 584 q 254 592 343 592 q 171 587 208 592 q 109 567 134 582 q 68 525 83 552 q 50 452 54 498 l 54 452 q 107 512 69 498 q 186 525 145 525 l 231 525 q 230 428 230 474 q 227 338 230 382 q 220 250 225 294 q 204 166 215 206 q 193 134 200 150 q 175 103 186 117 q 147 78 163 88 q 108 69 130 69 q 59 91 72 69 q 43 141 45 113 l 38 141 q 40 91 38 117 q 50 41 43 64 q 74 1 58 16 q 120 -14 90 -14 q 182 15 161 -14 q 216 84 204 44 q 234 178 227 123 q 244 294 241 233 q 247 414 247 355 q 248 526 248 473 q 352 523 304 524 q 455 522 400 522 q 451 382 452 447 q 450 254 450 317 q 450 209 450 233 q 451 163 450 187 q 463 74 454 113 q 500 10 475 34 q 577 -14 526 -14 q 643 1 618 -14 q 684 44 669 17 q 704 105 698 70 q 709 178 709 141 l 704 178 q 697 126 702 155 q 682 73 693 98 q 654 31 672 48 q 609 15 636 15 q 581 22 593 15 q 561 41 569 30 q 549 67 554 52 q 543 94 544 81 q 539 149 538 121 q 540 192 540 177 l 540 281 q 542 394 540 337 q 545 521 544 450 q 568 516 562 517 q 577 516 573 516 l 594 516 q 684 541 657 519 q 715 624 712 564 "},"Ö":{"x_min":66.671875,"x_max":908.40625,"ha":975,"o":"m 816 957 q 854 973 838 957 q 870 1013 870 990 q 854 1052 870 1037 q 816 1068 838 1068 q 777 1051 793 1068 q 761 1009 761 1034 q 777 972 761 988 q 816 957 794 957 m 158 957 q 197 972 181 957 q 213 1011 213 988 q 197 1050 213 1034 q 159 1066 181 1066 q 120 1051 136 1066 q 105 1013 105 1036 q 120 973 105 990 q 158 957 134 957 m 487 -13 q 668 28 588 -13 q 800 139 747 70 q 880 298 852 207 q 908 484 908 388 q 881 669 908 580 q 800 828 854 759 q 668 939 747 898 q 488 981 590 981 q 307 940 386 981 q 175 830 229 899 q 94 672 122 762 q 66 485 66 582 q 93 299 66 389 q 174 139 120 209 q 306 28 227 70 q 487 -13 384 -13 m 483 907 q 638 867 576 907 q 738 764 701 827 q 792 624 776 701 q 808 472 808 547 q 790 325 808 398 q 733 193 772 252 q 632 97 694 134 q 483 61 570 61 q 335 101 395 61 q 237 203 275 141 q 184 340 200 265 q 168 484 168 415 q 184 629 168 554 q 237 766 200 704 q 335 867 275 827 q 483 907 395 907 "},"z":{"x_min":52.78125,"x_max":586.15625,"ha":626,"o":"m 540 0 q 572 11 559 0 q 586 38 586 22 q 572 65 586 54 q 540 76 559 76 l 170 76 l 561 650 q 570 676 570 663 q 531 711 570 711 l 68 711 l 68 634 l 450 634 l 61 62 q 52 36 52 50 q 91 0 52 0 l 540 0 "},"™":{"x_min":83.34375,"x_max":979.25,"ha":1070,"o":"m 979 481 l 901 943 q 888 966 898 957 q 865 976 877 976 q 825 944 834 976 l 697 509 l 569 944 q 527 976 561 976 q 504 966 515 976 q 491 943 494 957 l 413 481 l 458 483 l 529 959 l 670 480 l 723 480 l 865 959 l 934 483 l 979 481 m 376 932 q 395 950 395 932 q 377 969 395 969 l 101 969 q 83 951 83 969 q 88 938 83 944 q 101 932 94 932 l 216 932 l 216 488 l 259 488 l 259 932 l 376 932 "},"\u000b":{"x_min":0,"x_max":0,"ha":0},"":{"x_min":51.390625,"x_max":804.234375,"ha":858,"o":"m 51 0 l 804 0 l 433 902 l 422 902 l 51 0 m 387 725 l 668 31 l 105 31 l 387 725 "},"ã":{"x_min":65.28125,"x_max":683.390625,"ha":788,"o":"m 538 813 q 569 825 556 813 q 581 854 581 837 q 569 882 581 870 q 540 894 556 894 l 245 894 q 217 882 229 894 q 205 854 205 870 q 217 826 205 837 q 247 815 229 815 l 538 813 m 595 -5 l 683 -5 l 683 679 q 670 709 683 695 q 643 722 658 722 q 613 716 622 722 q 602 700 605 709 q 597 673 600 691 l 597 595 q 485 694 540 666 q 372 722 430 722 q 243 691 300 722 q 146 608 186 659 q 86 491 106 556 q 65 356 65 425 q 85 220 65 286 q 144 102 105 154 q 240 18 183 50 q 372 -12 297 -12 q 488 20 433 -12 q 595 141 543 54 l 595 -5 m 386 651 q 491 625 450 651 q 556 557 531 598 q 590 466 580 516 q 600 366 600 415 q 591 260 600 315 q 558 161 581 205 q 491 87 534 116 q 379 58 447 58 q 274 86 316 58 q 206 159 231 115 q 170 256 180 204 q 159 358 159 309 q 171 459 159 406 q 210 553 183 511 q 280 623 237 595 q 386 651 323 651 "},"\u0019":{"x_min":-54.171875,"x_max":343.078125,"ha":286,"o":"m 341 953 q 343 965 343 957 q 318 999 343 999 q 291 980 298 999 l -51 23 q -54 5 -54 11 q -30 -24 -54 -24 q -13 -17 -22 -24 q -2 -3 -5 -11 l 341 953 "},"æ":{"x_min":66.671875,"x_max":1201.484375,"ha":1257,"o":"m 1180 326 q 1198 343 1194 333 q 1201 375 1201 354 q 1179 499 1201 437 q 1120 610 1158 561 q 1027 690 1082 659 q 908 720 973 720 q 790 690 850 720 q 673 587 730 659 l 673 666 q 673 682 673 675 q 670 697 673 690 q 661 716 668 709 q 636 723 654 723 q 610 716 618 723 q 600 697 602 709 q 595 666 595 684 l 595 583 q 485 690 543 661 q 369 719 427 719 q 238 687 294 719 q 143 603 181 655 q 86 484 105 551 q 66 347 66 416 q 86 214 66 279 q 145 100 106 150 q 240 19 184 50 q 369 -11 297 -11 q 429 -3 400 -11 q 488 22 459 4 q 545 72 518 41 q 597 151 572 104 l 597 -1 l 675 -1 l 675 119 q 734 55 704 80 q 793 15 763 30 q 854 -4 823 1 q 916 -11 884 -11 q 965 -8 945 -11 q 1001 0 984 -5 q 1032 11 1016 5 q 1069 25 1048 18 l 1045 93 q 985 71 1016 79 q 922 63 954 63 q 825 84 869 63 q 747 139 780 104 q 697 222 715 175 q 679 327 679 270 l 1145 327 q 1163 327 1154 327 q 1180 326 1172 326 m 898 647 q 991 624 952 647 q 1054 564 1029 601 q 1093 480 1079 527 q 1115 384 1107 433 l 679 384 l 679 427 q 696 513 679 473 q 744 582 713 552 q 814 629 775 612 q 898 647 854 647 m 373 641 q 478 617 436 641 q 547 553 520 593 q 585 463 573 513 q 597 362 597 413 q 586 263 597 315 q 552 169 576 212 q 486 97 527 126 q 384 69 445 69 q 279 94 322 69 q 209 160 236 119 q 170 252 181 201 q 158 352 158 302 q 169 450 158 398 q 206 543 180 501 q 272 613 231 586 q 373 641 313 641 "},"®":{"x_min":93.0625,"x_max":1098.703125,"ha":1192,"o":"m 595 -16 q 791 22 700 -16 q 951 130 883 62 q 1059 290 1019 198 q 1098 486 1098 381 q 1059 682 1098 590 q 951 841 1019 773 q 791 949 883 909 q 595 988 700 988 q 400 949 491 988 q 240 841 308 909 q 132 682 172 773 q 93 486 93 590 q 132 290 93 381 q 240 130 172 198 q 400 22 308 62 q 595 -16 491 -16 m 595 961 q 779 922 694 961 q 929 820 865 884 q 1029 669 993 755 q 1065 486 1065 583 q 1028 302 1065 388 q 928 150 991 215 q 779 48 865 86 q 595 11 693 11 q 411 48 497 11 q 263 150 326 86 q 163 302 200 215 q 127 486 127 388 q 163 670 127 583 q 263 821 200 757 q 411 923 326 886 q 595 961 497 961 m 768 187 q 785 194 777 187 q 793 212 793 201 q 786 227 793 220 l 554 472 q 723 497 661 456 q 786 613 786 538 q 735 736 786 690 q 608 783 684 783 l 461 783 q 441 775 450 783 q 433 755 433 766 l 433 213 q 441 195 433 202 q 459 187 448 187 q 478 194 470 187 q 486 212 486 201 l 486 490 l 747 197 q 768 187 757 187 m 605 737 q 652 728 629 737 q 692 704 675 719 q 720 667 709 688 q 732 619 732 645 q 700 534 732 570 q 615 498 668 498 l 486 498 l 486 737 l 605 737 "},"É":{"x_min":104.171875,"x_max":583.375,"ha":621,"o":"m 423 1136 q 443 1152 436 1141 q 451 1176 451 1163 q 440 1204 451 1193 q 411 1215 429 1215 q 373 1205 401 1215 q 309 1182 345 1195 q 244 1155 275 1168 q 198 1136 213 1143 q 179 1120 187 1132 q 170 1095 170 1108 q 182 1068 170 1079 q 212 1057 194 1057 q 250 1066 222 1057 q 313 1090 277 1076 q 377 1117 347 1104 q 423 1136 408 1130 m 150 0 l 583 0 l 583 79 l 195 79 l 195 444 l 486 444 q 514 456 502 444 q 526 484 526 468 q 514 512 526 501 q 484 523 502 523 l 195 523 l 195 890 l 500 890 q 529 901 518 890 q 541 930 541 912 q 529 957 541 945 q 501 969 518 969 l 151 969 q 127 969 140 969 q 105 970 116 969 l 104 50 q 115 13 104 26 q 150 0 127 0 "},"~":{"x_min":84.734375,"x_max":552.828125,"ha":638,"o":"m 552 550 l 512 550 q 493 497 508 522 q 444 472 477 472 q 377 484 409 472 q 315 512 345 497 q 254 538 283 527 q 194 550 225 550 q 145 538 166 550 q 111 506 125 526 q 90 459 97 486 q 84 405 84 433 l 125 405 q 143 458 127 433 q 191 483 158 483 q 258 470 226 483 q 322 443 290 458 q 383 417 354 427 q 443 406 412 406 q 491 418 470 406 q 526 450 512 430 q 546 495 540 469 q 552 550 552 522 "},"³":{"x_min":0,"x_max":0,"ha":0},"":{"x_min":75,"x_max":687.5625,"ha":763,"o":"m 75 148 l 687 340 l 687 408 l 75 600 l 75 534 l 588 373 l 75 213 l 75 148 m 75 25 l 687 25 l 687 88 l 75 88 l 75 25 "},"¡":{"x_min":87.5,"x_max":204.1875,"ha":292,"o":"m 144 875 q 187 891 170 875 q 204 932 204 907 q 186 972 204 955 q 145 990 169 990 q 104 974 122 990 q 87 934 87 958 q 103 892 87 909 q 144 875 119 875 m 144 -19 q 175 -6 162 -19 q 188 25 188 6 l 188 695 l 104 694 l 104 23 q 115 -6 104 5 q 144 -19 127 -19 "},"[":{"x_min":87.5,"x_max":272.25,"ha":318,"o":"m 236 -59 q 261 -49 251 -59 q 272 -23 272 -38 q 248 6 272 2 q 219 11 236 11 l 173 11 l 173 958 l 248 958 l 248 1029 l 123 1029 q 98 1016 109 1029 q 87 988 87 1004 l 87 -19 q 98 -47 87 -34 q 123 -59 109 -59 l 236 -59 "},"L":{"x_min":104.171875,"x_max":500.046875,"ha":529,"o":"m 150 -1 l 500 0 l 498 80 l 193 80 l 193 936 q 180 968 193 955 q 150 982 168 982 q 117 968 130 982 q 104 934 104 954 l 104 54 q 115 14 104 30 q 150 -1 127 -1 "},"":{"x_min":86.125,"x_max":605.609375,"ha":685,"o":"m 497 398 q 438 493 476 458 q 333 527 400 527 q 231 502 277 527 q 154 436 186 477 q 104 345 122 395 q 86 243 86 294 q 98 147 86 194 q 136 63 111 100 q 202 4 162 26 q 297 -18 241 -18 q 427 26 373 -18 q 516 131 480 70 q 586 314 566 218 q 605 509 605 411 q 595 630 605 565 q 558 751 584 695 q 486 844 531 807 q 369 882 440 882 q 323 876 348 882 q 277 859 298 870 q 241 828 255 847 q 227 783 227 809 q 243 749 227 759 q 279 738 259 738 q 320 754 301 738 q 356 787 338 769 q 391 820 375 805 q 426 836 408 836 q 476 808 458 836 q 502 742 494 780 q 512 665 511 704 q 513 604 513 626 q 511 500 513 554 q 497 398 509 447 m 355 484 q 414 468 391 484 q 450 427 437 452 q 468 370 463 401 q 473 311 473 340 q 466 222 473 273 q 439 124 458 170 q 388 45 420 77 q 305 12 355 12 q 247 27 270 12 q 211 66 225 43 q 193 119 198 90 q 188 177 188 148 q 195 269 188 216 q 220 370 201 322 q 270 451 238 418 q 355 484 302 484 "},"\u001d":{"x_min":0,"x_max":0,"ha":0}," ":{"x_min":0,"x_max":0,"ha":354},"%":{"x_min":69.453125,"x_max":961.1875,"ha":1031,"o":"m 268 543 q 352 561 315 543 q 416 611 390 580 q 456 684 443 643 q 470 773 470 726 q 456 857 470 818 q 417 926 443 897 q 354 972 391 955 q 272 990 318 990 q 187 972 225 990 q 123 923 150 954 q 83 852 97 893 q 69 765 69 811 q 83 680 69 720 q 123 609 97 640 q 186 561 150 579 q 268 543 222 543 m 548 477 q 621 654 586 569 q 684 804 657 738 q 727 912 711 870 q 743 958 743 954 q 732 982 743 972 q 708 993 722 993 q 679 973 686 993 l 272 -13 l 331 -38 q 365 40 343 -12 q 416 163 387 93 q 479 314 445 233 q 548 477 513 395 m 758 -23 q 841 -6 804 -23 q 905 40 879 11 q 946 111 932 70 q 961 197 961 151 q 947 283 961 243 q 909 353 934 323 q 846 400 883 383 q 762 418 809 418 q 677 400 715 418 q 613 353 640 383 q 571 283 586 323 q 556 197 556 243 q 570 111 556 151 q 610 40 584 70 q 673 -6 636 11 q 758 -23 711 -23 m 270 943 q 334 927 308 943 q 375 886 359 911 q 398 831 391 861 q 405 772 405 801 q 398 712 405 744 q 375 652 391 680 q 333 606 359 625 q 269 588 306 588 q 206 606 233 588 q 163 650 180 623 q 139 708 147 677 q 131 766 131 738 q 139 826 131 795 q 163 883 147 857 q 206 926 180 909 q 270 943 233 943 m 759 372 q 826 356 800 372 q 868 315 852 340 q 889 259 883 290 q 895 198 895 227 q 889 138 895 169 q 868 81 883 106 q 826 38 852 55 q 759 22 800 22 q 694 38 720 22 q 651 79 668 54 q 627 136 634 105 q 619 197 619 168 q 626 259 619 227 q 650 315 633 290 q 693 356 666 340 q 759 372 720 372 "},"P":{"x_min":104.171875,"x_max":705.609375,"ha":746,"o":"m 398 374 q 518 396 462 374 q 616 456 575 417 q 682 550 658 495 q 705 670 705 605 q 704 700 705 685 q 700 730 702 714 q 661 830 688 785 q 593 905 633 874 q 504 952 554 935 q 397 969 454 969 q 250 966 325 969 q 104 970 176 963 l 104 32 q 117 0 104 13 q 150 -13 130 -13 q 180 0 168 -13 q 193 32 193 13 l 193 374 l 398 374 m 393 893 q 479 875 438 893 q 550 828 519 858 q 597 758 580 798 q 615 672 615 718 q 597 586 615 626 q 550 517 580 547 q 479 470 519 487 q 394 452 440 452 l 195 452 l 195 893 l 393 893 "},"À":{"x_min":29.171875,"x_max":847.296875,"ha":858,"o":"m 527 1058 q 556 1069 545 1058 q 568 1095 568 1080 q 540 1136 568 1125 q 494 1154 525 1141 q 429 1182 463 1168 q 365 1206 393 1197 q 326 1215 337 1215 q 298 1204 309 1215 q 287 1177 287 1193 q 315 1137 287 1148 q 361 1118 330 1132 q 426 1091 391 1105 q 490 1068 462 1077 q 527 1058 518 1058 m 757 -11 l 847 15 l 504 915 q 475 965 490 950 q 425 980 459 980 q 381 962 397 980 q 354 915 365 944 l 34 55 q 29 27 29 43 q 40 -2 29 9 q 70 -13 52 -13 q 96 -5 84 -13 q 113 18 108 2 l 187 215 l 670 215 l 757 -11 m 429 895 l 647 290 l 209 290 l 429 895 "},"_":{"x_min":69.453125,"x_max":569.484375,"ha":639,"o":"m 69 -301 l 569 -301 l 569 -263 l 69 -263 l 69 -301 "},"ñ":{"x_min":104.171875,"x_max":657,"ha":761,"o":"m 526 813 q 556 825 544 813 q 569 854 569 837 q 556 882 569 870 q 527 894 544 894 l 233 894 q 204 882 216 894 q 193 854 193 870 q 204 826 193 837 q 234 815 216 815 l 526 813 m 612 -15 q 644 -2 632 -15 q 657 29 657 9 l 657 455 q 638 562 657 513 q 587 646 620 611 q 506 701 554 682 q 401 720 459 720 q 294 692 348 720 q 190 588 240 663 l 190 672 q 186 700 190 687 q 175 717 183 711 q 150 723 168 723 q 117 711 130 723 q 104 679 104 698 l 104 -1 l 190 -1 l 190 456 q 204 530 190 495 q 245 591 219 565 q 304 633 270 618 q 379 648 338 648 q 453 633 418 648 q 514 591 488 618 q 555 528 540 563 q 570 454 570 493 l 570 27 q 582 -2 570 9 q 612 -15 594 -15 "},"+":{"x_min":79.171875,"x_max":697.28125,"ha":757,"o":"m 663 429 q 687 438 677 429 q 697 461 697 448 q 687 482 697 472 q 665 493 677 493 l 411 493 l 411 748 q 402 770 411 761 q 380 780 393 780 q 357 771 366 780 q 348 747 348 762 l 348 493 l 79 493 l 79 430 l 347 430 l 347 170 q 356 149 347 158 q 379 140 365 140 q 402 149 393 140 q 411 169 411 158 l 411 429 l 663 429 "},"‚":{"x_min":18.0625,"x_max":208.34375,"ha":258,"o":"m 155 -53 q 179 -2 166 -30 q 200 43 193 26 q 208 63 206 61 l 130 100 q 122 84 130 100 q 102 45 113 68 q 79 0 91 23 q 58 -41 66 -25 q 29 -105 41 -78 q 18 -143 18 -133 q 30 -174 18 -161 q 61 -188 43 -188 q 100 -162 88 -188 q 122 -118 106 -149 q 155 -53 138 -87 "},"½":{"x_min":0,"x_max":0,"ha":0},"Æ":{"x_min":6.9375,"x_max":998.6875,"ha":1064,"o":"m 958 0 q 986 11 973 0 q 998 40 998 23 q 986 68 998 56 q 958 79 975 79 l 638 79 l 638 443 l 929 443 q 957 455 944 443 q 969 483 969 468 q 959 511 969 500 q 933 523 948 523 l 641 523 l 641 890 l 933 890 l 933 969 l 522 969 q 488 959 498 969 q 466 925 479 950 l 6 25 l 83 -9 l 200 213 l 550 213 l 550 48 q 563 13 550 27 q 597 0 576 0 l 958 0 m 550 908 l 550 287 l 236 287 l 550 908 "},"Ë":{"x_min":104.171875,"x_max":583.375,"ha":621,"o":"m 441 1062 q 484 1078 468 1062 q 501 1119 501 1094 q 484 1161 501 1144 q 441 1177 466 1177 q 402 1160 418 1177 q 386 1119 386 1143 q 402 1079 386 1095 q 441 1062 419 1062 m 179 1062 q 219 1079 202 1062 q 236 1120 236 1097 q 219 1161 236 1144 q 179 1177 202 1177 q 136 1161 154 1177 q 119 1119 119 1144 q 136 1078 119 1094 q 179 1062 154 1062 m 150 0 l 583 0 l 583 79 l 195 79 l 195 444 l 486 444 q 514 456 502 444 q 526 484 526 468 q 514 512 526 501 q 484 523 502 523 l 195 523 l 195 890 l 500 890 q 529 901 518 890 q 541 930 541 912 q 529 957 541 945 q 501 969 518 969 l 151 969 q 127 969 140 969 q 105 970 116 969 l 104 50 q 115 13 104 26 q 150 0 127 0 "},"'":{"x_min":86.125,"x_max":168.0625,"ha":254,"o":"m 143 687 l 168 969 l 111 969 l 86 687 l 143 687 "},"Š":{"x_min":0,"x_max":0,"ha":0},"ª":{"x_min":91.671875,"x_max":520.875,"ha":606,"o":"m 445 515 l 501 513 l 501 957 q 493 977 501 968 q 475 986 484 986 q 448 964 451 986 q 445 893 445 943 q 365 966 401 945 q 293 986 329 986 q 207 965 244 986 q 144 910 170 944 q 104 832 118 876 q 91 743 91 788 q 104 654 91 697 q 143 577 118 611 q 206 522 169 543 q 290 501 243 501 q 367 525 329 501 q 445 615 405 548 l 445 515 m 504 383 q 516 388 511 383 q 520 398 520 393 q 504 416 520 416 l 122 416 l 120 383 l 504 383 m 301 940 q 372 922 344 940 q 416 876 400 904 q 440 815 433 848 q 447 750 447 782 q 441 681 447 716 q 419 616 436 645 q 373 566 402 586 q 298 547 344 547 q 228 566 256 547 q 182 615 200 586 q 157 679 165 644 q 150 745 150 713 q 158 811 150 777 q 184 874 166 845 q 230 921 201 902 q 301 940 259 940 "},"Œ":{"x_min":66.671875,"x_max":1245.9375,"ha":1313,"o":"m 1204 0 q 1234 11 1222 0 q 1245 38 1245 22 q 1234 65 1245 54 q 1205 77 1222 77 l 886 77 l 886 444 l 1176 444 q 1207 456 1194 444 q 1219 484 1219 468 q 1207 512 1219 501 q 1177 523 1195 523 l 887 523 l 887 890 l 1193 890 q 1221 902 1209 890 q 1233 929 1233 913 q 1221 958 1233 947 q 1191 969 1209 969 l 848 969 q 816 959 825 969 q 804 929 807 948 q 802 906 801 918 q 802 883 802 894 q 804 852 804 870 q 805 779 805 833 q 736 875 773 836 q 657 939 698 915 q 572 974 616 963 q 486 984 529 984 q 299 941 377 984 q 168 826 220 898 q 91 661 116 754 q 66 469 66 569 q 94 288 66 375 q 175 134 122 201 q 306 27 229 68 q 483 -12 384 -12 q 654 34 572 -12 q 804 195 737 80 l 804 33 q 815 9 804 18 q 844 0 826 0 l 1204 0 m 487 901 q 633 862 573 901 q 730 763 693 823 q 785 628 768 702 q 802 484 802 554 q 786 336 802 409 q 732 203 769 262 q 632 107 694 144 q 480 70 570 70 q 332 109 393 70 q 234 206 272 147 q 180 338 197 265 q 163 483 163 412 q 181 629 163 555 q 236 764 198 704 q 336 863 275 825 q 487 901 398 901 "},"ð":{"x_min":0,"x_max":0,"ha":0},"T":{"x_min":37.5,"x_max":598.65625,"ha":611,"o":"m 556 890 q 586 902 573 890 q 598 929 598 914 q 587 958 598 947 q 558 969 576 969 l 37 969 l 37 890 l 258 890 l 258 34 q 271 2 258 15 q 304 -11 284 -11 q 334 2 322 -11 q 347 34 347 15 l 347 890 l 556 890 "},"š":{"x_min":0,"x_max":0,"ha":0},"Þ":{"x_min":0,"x_max":0,"ha":0},"j":{"x_min":104.171875,"x_max":190.296875,"ha":294,"o":"m 147 868 q 172 877 162 868 q 181 902 181 887 q 172 926 181 916 q 147 936 162 936 q 122 926 131 936 q 112 901 112 916 q 122 877 112 887 q 147 868 131 868 m 104 -294 l 190 -294 l 190 679 q 177 711 190 697 q 145 725 163 725 q 115 711 127 725 q 104 677 104 697 l 104 -294 "},"1":{"x_min":168.0625,"x_max":440.3125,"ha":757,"o":"m 350 -1 l 440 0 l 440 922 q 428 955 440 941 q 398 969 416 969 l 208 969 q 179 957 191 969 q 168 929 168 945 q 179 902 168 913 q 206 891 190 891 l 350 891 l 350 -1 "},"›":{"x_min":70.84375,"x_max":280.578125,"ha":350,"o":"m 276 334 q 280 348 280 342 q 272 369 280 356 q 259 390 263 383 l 141 594 q 104 622 125 622 q 80 612 90 622 q 70 590 70 602 q 80 558 70 574 l 206 352 l 79 145 q 70 116 70 133 q 101 82 70 82 q 125 89 113 82 q 143 108 136 97 l 266 317 q 276 334 272 326 "},"ä":{"x_min":65.28125,"x_max":683.390625,"ha":788,"o":"m 533 832 q 574 849 556 832 q 591 890 591 866 q 574 932 591 915 q 533 950 556 950 q 492 932 509 950 q 475 891 475 915 q 491 849 475 866 q 533 832 508 832 m 269 832 q 310 849 293 832 q 327 890 327 866 q 311 932 327 915 q 269 950 294 950 q 228 933 245 950 q 211 893 211 916 q 227 849 211 866 q 269 832 244 832 m 595 -5 l 683 -5 l 683 679 q 670 709 683 695 q 643 722 658 722 q 613 716 622 722 q 602 700 605 709 q 597 673 600 691 l 597 595 q 485 694 540 666 q 372 722 430 722 q 243 691 300 722 q 146 608 186 659 q 86 491 106 556 q 65 356 65 425 q 85 220 65 286 q 144 102 105 154 q 240 18 183 50 q 372 -12 297 -12 q 488 20 433 -12 q 595 141 543 54 l 595 -5 m 386 651 q 491 625 450 651 q 556 557 531 598 q 590 466 580 516 q 600 366 600 415 q 591 260 600 315 q 558 161 581 205 q 491 87 534 116 q 379 58 447 58 q 274 86 316 58 q 206 159 231 115 q 170 256 180 204 q 159 358 159 309 q 171 459 159 406 q 210 553 183 511 q 280 623 237 595 q 386 651 323 651 "},"¹":{"x_min":0,"x_max":0,"ha":0},"<":{"x_min":100.015625,"x_max":638.9375,"ha":724,"o":"m 100 346 l 638 42 l 638 105 l 201 346 l 638 586 l 638 650 l 100 346 "},"£":{"x_min":55.5625,"x_max":757,"ha":828,"o":"m 152 0 l 757 0 l 755 80 l 240 80 q 336 215 312 143 q 359 352 359 287 q 356 393 359 372 q 347 447 352 413 l 540 447 l 540 526 l 327 526 q 301 579 313 554 q 277 629 288 604 q 259 682 266 655 q 251 736 251 708 q 267 809 251 777 q 310 863 283 841 q 371 897 337 886 q 443 908 405 908 q 647 786 579 908 q 654 770 651 779 q 661 754 658 762 q 668 738 665 745 q 675 726 672 732 q 705 711 687 711 q 738 725 726 711 q 751 761 751 738 q 729 829 751 794 q 684 893 708 865 q 574 969 640 944 q 440 994 508 994 q 334 978 386 994 q 244 932 283 962 q 181 858 205 902 q 158 757 158 813 q 179 646 158 698 q 236 525 200 594 l 98 525 q 68 513 80 525 q 55 484 55 501 q 68 457 55 469 q 98 445 80 445 l 255 445 q 265 396 262 418 q 268 354 268 375 q 242 236 268 287 q 184 145 216 184 q 154 110 169 126 q 129 80 140 94 q 108 43 108 54 q 121 12 108 25 q 152 0 134 0 "},"t":{"x_min":19.453125,"x_max":337.53125,"ha":344,"o":"m 305 638 q 329 650 320 643 q 337 673 337 658 q 329 698 337 690 q 305 709 320 707 q 288 711 297 711 q 269 712 279 712 q 247 711 258 712 q 218 711 237 711 l 219 893 q 206 927 219 912 q 175 941 193 941 q 144 927 156 941 q 131 893 131 912 l 131 711 l 81 711 q 63 711 72 711 q 48 708 55 711 q 26 697 33 705 q 19 673 19 690 q 27 650 19 658 q 48 640 34 643 q 65 637 56 637 q 83 637 73 637 l 133 637 l 133 0 l 219 0 l 219 637 q 248 637 238 637 q 269 636 259 637 q 288 636 279 636 q 305 638 297 637 "},"¬":{"x_min":84.734375,"x_max":704.21875,"ha":789,"o":"m 659 300 l 704 300 l 704 556 l 84 556 l 84 500 l 659 500 l 659 300 "},"ù":{"x_min":104.171875,"x_max":659.78125,"ha":764,"o":"m 480 800 q 509 811 498 800 q 520 837 520 822 q 493 877 520 866 q 447 896 477 883 q 381 923 416 909 q 318 947 345 938 q 279 957 290 957 q 251 945 262 957 q 240 919 240 934 q 268 879 240 890 q 313 860 283 873 q 379 833 344 847 q 443 809 415 819 q 480 800 470 800 m 381 -13 q 588 55 516 -13 q 659 259 659 124 l 659 675 q 647 708 659 695 q 616 721 636 721 q 586 709 598 721 q 573 677 573 696 l 573 262 q 527 114 573 168 q 381 60 480 60 q 237 115 283 60 q 191 262 191 170 l 191 695 l 104 694 l 104 259 q 175 55 104 124 q 381 -13 247 -13 "},"W":{"x_min":38.890625,"x_max":1112.59375,"ha":1157,"o":"m 1111 920 q 1112 935 1112 924 q 1100 969 1112 956 q 1065 981 1087 981 q 1036 969 1047 981 q 1022 935 1025 956 l 877 56 l 627 932 l 529 932 l 279 56 l 126 977 l 38 962 l 201 48 q 277 -13 212 -13 q 325 0 305 -13 q 351 38 344 13 l 577 850 l 805 38 q 832 0 812 13 q 879 -13 851 -13 q 954 48 943 -13 l 1111 920 "},"ï":{"x_min":-58.34375,"x_max":323.640625,"ha":264,"o":"m 263 804 q 306 820 290 804 q 323 861 323 836 q 306 902 323 886 q 263 919 288 919 q 224 902 240 919 q 208 861 208 884 q 225 820 208 837 q 263 804 241 804 m 1 804 q 41 821 25 804 q 58 862 58 838 q 41 902 58 886 q 1 919 25 919 q -40 902 -23 919 q -58 861 -58 886 q -40 820 -58 836 q 1 804 -23 804 m 105 -1 l 191 -1 l 191 679 q 179 709 191 695 q 151 722 166 722 q 118 710 131 722 q 105 679 105 698 l 105 -1 "},">":{"x_min":84.734375,"x_max":623.65625,"ha":724,"o":"m 84 42 l 623 346 l 84 650 l 84 586 l 522 346 l 84 105 l 84 42 "},"v":{"x_min":18.0625,"x_max":575.046875,"ha":601,"o":"m 472 366 q 511 478 493 424 q 543 573 529 531 q 566 643 558 616 q 575 675 575 670 q 561 707 575 694 q 530 720 548 720 q 490 688 501 720 l 302 123 l 100 716 l 18 689 l 254 23 q 302 -13 266 -13 q 348 23 334 -13 q 365 69 352 35 q 394 150 377 103 q 431 252 411 196 q 472 366 451 309 "},"û":{"x_min":104.171875,"x_max":659.78125,"ha":764,"o":"m 538 800 q 569 812 556 800 q 581 841 581 825 q 556 880 581 870 l 406 936 q 393 941 402 937 q 380 944 384 944 q 368 941 376 944 q 355 936 359 937 l 208 877 q 181 838 181 866 q 193 811 181 822 q 220 800 205 800 q 250 806 230 800 q 295 823 270 812 q 342 844 319 834 q 381 861 365 854 q 420 843 398 854 q 465 823 441 833 q 508 806 488 812 q 538 800 527 800 m 381 -13 q 588 55 516 -13 q 659 259 659 124 l 659 675 q 647 708 659 695 q 616 721 636 721 q 586 709 598 721 q 573 677 573 696 l 573 262 q 527 114 573 168 q 381 60 480 60 q 237 115 283 60 q 191 262 191 170 l 191 695 l 104 694 l 104 259 q 175 55 104 124 q 381 -13 247 -13 "},"Ò":{"x_min":66.671875,"x_max":908.40625,"ha":975,"o":"m 586 1058 q 615 1069 604 1058 q 626 1095 626 1080 q 598 1136 626 1125 q 552 1154 583 1141 q 487 1182 522 1168 q 423 1206 451 1197 q 384 1215 395 1215 q 356 1204 368 1215 q 345 1177 345 1193 q 373 1137 345 1148 q 419 1118 388 1132 q 484 1091 450 1105 q 548 1068 520 1077 q 586 1058 576 1058 m 487 -13 q 668 28 588 -13 q 800 139 747 70 q 880 298 852 207 q 908 484 908 388 q 881 669 908 580 q 800 828 854 759 q 668 939 747 898 q 488 981 590 981 q 307 940 386 981 q 175 830 229 899 q 94 672 122 762 q 66 485 66 582 q 93 299 66 389 q 174 139 120 209 q 306 28 227 70 q 487 -13 384 -13 m 483 907 q 638 867 576 907 q 738 764 701 827 q 792 624 776 701 q 808 472 808 547 q 790 325 808 398 q 733 193 772 252 q 632 97 694 134 q 483 61 570 61 q 335 101 395 61 q 237 203 275 141 q 184 340 200 265 q 168 484 168 415 q 184 629 168 554 q 237 766 200 704 q 335 867 275 827 q 483 907 395 907 "},"\n":{"x_min":90.28125,"x_max":543.09375,"ha":633,"o":"m 456 604 l 543 687 q 532 699 537 694 q 522 710 527 704 l 436 622 q 375 656 404 646 q 318 666 347 666 q 258 657 287 666 q 197 623 229 647 l 109 708 q 100 698 104 703 q 90 686 95 693 l 177 603 q 143 543 154 572 q 133 486 133 514 q 179 368 133 428 l 90 280 q 98 270 94 275 q 108 261 102 265 l 198 348 q 259 313 230 323 q 316 303 287 303 q 374 313 345 303 q 434 347 402 323 l 520 260 q 531 269 526 265 q 541 280 536 273 l 455 366 q 488 428 479 398 q 498 486 498 457 q 456 604 498 544 m 315 633 q 372 621 345 633 q 420 589 400 609 q 453 542 441 569 q 465 484 465 515 q 453 427 465 454 q 420 379 441 400 q 372 347 400 359 q 315 336 345 336 q 257 347 284 336 q 210 379 230 359 q 178 427 190 400 q 166 484 166 454 q 178 542 166 515 q 210 589 190 569 q 257 621 230 609 q 315 633 284 633 "},"":{"x_min":84.734375,"x_max":982.015625,"ha":1061,"o":"m 637 204 q 775 245 712 218 q 884 316 838 273 q 956 418 930 359 q 982 551 982 476 q 943 711 982 644 q 842 821 905 777 q 698 886 779 865 q 533 907 618 907 q 366 886 447 907 q 223 821 286 865 q 122 711 161 777 q 84 551 84 644 q 110 418 84 476 q 181 316 136 359 q 290 245 227 273 q 429 204 354 218 l 429 94 l 243 94 q 140 121 169 94 q 106 213 112 148 l 104 213 l 104 0 l 451 0 l 451 222 q 346 267 390 236 q 274 341 302 298 q 231 438 245 384 q 218 551 218 491 q 238 684 218 623 q 300 791 259 745 q 399 861 340 836 q 533 887 458 887 q 668 861 609 887 q 767 791 727 836 q 827 685 807 747 q 848 551 848 623 q 834 441 848 494 q 791 343 820 387 q 718 267 762 298 q 615 222 675 236 l 615 0 l 962 0 l 962 213 l 959 213 q 925 120 954 147 q 823 94 897 94 l 637 94 l 637 204 "},"&":{"x_min":75,"x_max":914.578125,"ha":947,"o":"m 852 -38 l 914 16 l 749 216 q 787 266 764 237 q 832 328 810 296 q 871 391 856 362 q 886 437 886 420 q 876 466 886 456 q 850 476 865 476 l 845 476 q 800 439 824 473 q 779 405 789 423 q 761 374 768 387 q 734 331 749 353 q 696 277 720 309 l 443 578 q 517 627 482 602 q 578 681 551 652 q 619 742 604 709 q 634 816 634 776 q 615 892 634 859 q 567 948 597 926 q 497 981 536 970 q 415 993 457 993 q 332 981 372 993 q 263 945 293 969 q 215 888 233 922 q 197 809 197 854 q 231 701 197 755 q 315 595 265 648 q 218 533 262 569 q 143 453 175 497 q 93 362 111 410 q 75 263 75 315 q 99 146 75 199 q 164 55 123 94 q 261 -3 205 17 q 379 -24 316 -24 q 550 21 468 -24 q 693 151 632 67 l 852 -38 m 419 919 q 466 911 443 919 q 506 888 489 902 q 534 852 523 873 q 546 805 546 832 q 515 724 546 757 q 448 668 484 691 q 424 653 437 661 q 391 633 411 645 q 357 679 373 659 q 325 718 340 698 q 298 761 309 737 q 286 812 286 784 q 298 861 286 841 q 330 895 311 882 q 373 913 350 908 q 419 919 397 919 m 363 535 l 637 213 q 525 102 594 146 q 384 58 457 58 q 298 75 338 58 q 230 122 259 92 q 184 192 200 152 q 169 277 169 231 q 184 359 169 320 q 225 431 199 398 q 287 491 252 464 q 363 535 323 517 "},"Ð":{"x_min":0,"x_max":0,"ha":0},"I":{"x_min":104.171875,"x_max":193.078125,"ha":297,"o":"m 147 1048 q 172 1058 162 1048 q 181 1083 181 1068 q 172 1107 181 1097 q 147 1116 162 1116 q 122 1107 131 1116 q 112 1082 112 1097 q 122 1058 112 1068 q 147 1048 131 1048 m 104 0 l 193 0 l 193 934 q 180 967 193 954 q 150 980 168 980 q 117 967 130 980 q 104 934 104 954 l 104 0 "},"G":{"x_min":66.671875,"x_max":900.078125,"ha":956,"o":"m 513 -13 q 684 22 611 -13 q 804 122 757 59 q 876 267 852 184 q 900 441 900 350 q 885 518 900 495 q 819 540 870 540 l 618 540 q 588 527 601 540 q 575 498 575 515 q 586 470 575 481 q 616 459 598 459 l 808 459 q 792 315 808 386 q 741 188 776 244 q 649 98 705 133 q 511 63 593 63 q 352 99 418 63 q 244 193 286 134 q 183 328 202 252 q 163 484 163 404 q 183 634 163 559 q 243 770 202 709 q 348 868 284 830 q 501 907 412 907 q 583 897 548 907 q 648 873 618 888 q 677 857 663 866 q 705 838 690 848 q 730 822 718 832 q 757 805 743 813 l 808 870 q 672 948 743 916 q 525 980 602 980 q 328 941 413 980 q 184 835 243 902 q 96 675 126 768 q 66 476 66 583 q 95 281 66 372 q 181 126 125 191 q 322 23 238 61 q 513 -13 405 -13 "},"`":{"x_min":11.109375,"x_max":291.6875,"ha":306,"o":"m 263 792 l 291 865 l 68 954 q 50 957 56 957 q 22 945 33 957 q 11 919 11 934 q 38 879 11 890 l 263 792 "},"·":{"x_min":90.28125,"x_max":206.96875,"ha":297,"o":"m 148 291 q 189 308 172 291 q 206 348 206 325 q 189 390 206 373 q 147 406 172 406 q 106 389 123 406 q 90 348 90 372 q 107 308 90 325 q 148 291 125 291 "},"r":{"x_min":104.171875,"x_max":395.859375,"ha":379,"o":"m 370 640 q 395 675 395 654 q 380 709 395 695 q 343 723 365 723 q 303 715 323 723 q 263 684 283 707 q 222 623 243 662 q 180 522 201 584 q 186 603 184 575 q 190 646 188 632 q 192 668 191 661 q 193 683 193 675 q 179 709 193 698 q 148 719 166 719 q 116 707 129 719 q 104 676 104 694 l 104 -2 l 191 -1 l 191 366 q 200 460 191 420 q 225 527 209 500 q 261 573 241 555 q 301 604 280 591 q 338 622 320 615 q 370 640 355 630 "},"¿":{"x_min":48.609375,"x_max":583.375,"ha":645,"o":"m 301 876 q 342 893 325 876 q 359 933 359 909 q 343 973 359 957 q 301 990 326 990 q 261 974 277 990 q 244 936 244 958 q 261 893 244 911 q 301 876 277 876 m 302 -20 q 410 -4 359 -20 q 500 42 461 11 q 561 119 538 73 q 583 223 583 165 q 518 394 583 325 q 343 481 452 463 l 343 695 l 258 695 l 258 440 q 263 426 258 431 q 283 415 268 420 q 318 404 298 408 q 359 393 338 400 q 404 374 381 386 q 443 343 426 362 q 472 296 461 325 q 483 226 483 268 q 469 158 483 188 q 431 106 455 127 q 376 73 408 84 q 309 62 344 62 q 243 70 270 62 q 197 89 216 77 q 166 117 179 101 q 145 150 154 133 q 138 165 141 158 q 131 180 134 173 q 126 193 129 187 q 120 204 123 198 q 91 220 109 220 q 60 206 72 220 q 48 169 48 193 q 61 115 48 141 q 94 66 75 90 q 188 0 133 22 q 302 -20 243 -20 "},"ý":{"x_min":0,"x_max":0,"ha":0},"x":{"x_min":29.171875,"x_max":632,"ha":661,"o":"m 590 -11 q 619 1 607 -11 q 632 29 632 14 q 620 61 632 45 l 383 379 l 591 651 q 602 682 602 665 q 590 709 602 697 q 561 722 577 722 q 519 694 540 722 l 330 441 l 125 715 l 54 669 l 277 379 l 40 61 q 29 29 29 45 q 41 1 29 14 q 70 -11 54 -11 q 112 14 94 -11 l 330 316 l 548 14 q 590 -11 566 -11 "},"è":{"x_min":66.671875,"x_max":690.328125,"ha":747,"o":"m 472 800 q 501 811 490 800 q 512 837 512 822 q 484 877 512 866 q 438 896 469 883 q 373 923 408 909 q 309 947 337 938 q 270 957 281 957 q 243 945 254 957 q 231 919 231 934 q 259 879 231 890 q 305 860 275 873 q 370 833 336 847 q 434 809 406 819 q 472 800 462 800 m 632 323 q 678 332 666 323 q 690 373 690 341 q 668 502 690 440 q 607 613 647 565 q 511 691 568 662 q 387 720 455 720 q 254 690 313 720 q 154 609 195 659 q 89 493 112 559 q 66 356 66 427 q 88 214 66 281 q 153 96 111 147 q 256 15 195 45 q 397 -13 318 -13 q 481 -4 443 -13 q 562 22 519 5 l 543 87 q 472 70 508 77 q 401 62 437 62 q 306 82 350 62 q 232 138 263 102 q 184 221 201 173 q 166 323 166 269 l 632 323 m 384 652 q 474 629 434 652 q 541 567 513 605 q 581 481 568 529 q 597 384 595 433 l 161 384 q 182 483 168 434 q 223 569 197 531 q 288 629 250 607 q 384 652 327 652 "},"º":{"x_min":90.28125,"x_max":508.375,"ha":593,"o":"m 298 500 q 384 520 345 500 q 450 573 423 540 q 492 650 477 607 q 506 738 506 693 q 493 830 506 786 q 452 909 479 875 q 387 965 426 944 q 300 986 348 986 q 212 966 251 986 q 146 912 173 945 q 104 836 119 879 q 90 745 90 793 q 104 654 90 698 q 145 575 118 609 q 211 520 172 541 q 298 500 250 500 m 490 383 q 508 401 508 383 q 502 413 508 408 q 490 418 497 418 l 119 418 l 119 383 l 490 383 m 295 938 q 368 918 338 938 q 414 868 397 898 q 438 802 431 838 q 445 734 445 766 q 437 670 445 702 q 410 609 429 637 q 363 564 391 581 q 295 547 334 547 q 227 566 255 547 q 183 616 200 586 q 159 680 166 645 q 151 744 151 715 q 159 807 151 773 q 183 870 166 841 q 227 919 200 900 q 295 938 255 938 "},"Ø":{"x_min":55.5625,"x_max":925.078125,"ha":976,"o":"m 883 900 q 911 936 898 919 q 925 965 925 954 q 918 983 925 976 q 901 990 912 990 q 876 975 890 990 q 847 943 862 961 q 811 900 829 922 q 779 858 794 877 q 638 953 712 923 q 483 983 563 983 q 304 941 381 983 q 173 829 226 898 q 93 670 120 759 q 66 484 66 580 q 90 310 66 393 q 172 145 113 227 l 55 4 l 93 -30 l 205 106 q 338 15 268 44 q 483 -13 408 -13 q 663 27 584 -13 q 797 136 743 68 q 879 294 851 205 q 908 480 908 383 q 886 653 908 569 q 812 820 863 737 q 845 857 827 837 q 883 900 863 877 m 481 904 q 609 877 548 904 q 722 791 670 850 l 233 213 q 179 350 193 288 q 166 479 166 412 q 182 623 166 548 q 235 761 198 698 q 332 863 272 823 q 481 904 393 904 m 751 751 q 795 605 783 672 q 808 472 808 538 q 791 329 808 401 q 736 198 773 256 q 638 103 698 140 q 493 66 579 66 q 371 90 430 66 q 261 170 312 115 l 751 751 "},"÷":{"x_min":75,"x_max":687.5625,"ha":858,"o":"m 381 434 q 426 453 408 434 q 444 498 444 472 q 425 543 444 523 q 381 562 406 562 q 336 544 354 562 q 318 498 318 526 q 336 452 318 470 q 381 434 354 434 m 75 280 l 687 280 l 687 344 l 75 344 l 75 280 m 381 61 q 426 79 408 61 q 444 125 444 98 q 427 170 444 152 q 381 188 409 188 q 336 170 354 188 q 318 125 318 152 q 336 79 318 97 q 381 61 354 61 "},"\u001f":{"x_min":0,"x_max":0,"ha":0},"h":{"x_min":104.171875,"x_max":657,"ha":761,"o":"m 612 -15 q 644 -2 632 -15 q 657 29 657 9 l 657 454 q 639 560 657 511 q 588 645 622 609 q 509 700 555 680 q 404 720 462 720 q 297 692 350 720 q 191 590 244 663 l 191 1004 q 179 1035 191 1022 q 148 1048 166 1048 q 117 1035 130 1048 q 104 1002 104 1022 l 104 -2 l 190 -2 l 190 456 q 205 530 190 495 q 246 591 220 565 q 306 633 272 618 q 380 648 341 648 q 455 633 420 648 q 516 591 490 618 q 556 528 541 563 q 570 454 570 493 l 570 27 q 582 -2 570 9 q 612 -15 594 -15 "},"\u0005":{"x_min":8.328125,"x_max":425.03125,"ha":440,"o":"m 218 795 q 270 801 236 795 q 339 818 305 807 q 399 847 373 829 q 425 888 425 864 q 416 923 425 908 q 391 938 406 938 q 379 931 388 938 q 361 921 370 926 q 340 908 351 915 q 286 887 316 897 q 219 876 255 876 q 150 887 181 876 q 94 910 118 897 q 72 921 83 916 q 55 932 62 926 q 47 936 50 934 q 41 939 44 939 q 19 925 30 939 q 8 896 8 911 q 32 850 8 869 q 90 818 56 831 q 160 800 125 806 q 218 795 195 795 "},"\b":{"x_min":69.453125,"x_max":266.6875,"ha":336,"o":"m 166 804 q 236 830 206 804 q 266 897 266 857 q 237 963 266 937 q 168 990 208 990 q 98 963 127 990 q 69 897 69 937 q 97 831 69 858 q 166 804 126 804 m 168 962 q 214 942 195 962 q 233 895 233 922 q 215 851 233 870 q 169 832 197 832 q 121 849 141 832 q 101 897 101 866 q 121 943 101 925 q 168 962 141 962 "},".":{"x_min":6.9375,"x_max":123.625,"ha":250,"o":"m 65 -18 q 106 -1 88 -18 q 123 38 123 15 q 106 80 123 63 q 63 97 88 97 q 23 79 40 97 q 6 38 6 62 q 24 -1 6 15 q 65 -18 41 -18 "},";":{"x_min":37.5,"x_max":229.1875,"ha":297,"o":"m 169 456 q 209 474 193 456 q 226 515 226 491 q 209 554 226 538 q 169 570 193 570 q 127 554 144 570 q 109 513 109 538 q 127 472 109 488 q 169 456 144 456 m 119 -162 l 229 61 l 148 100 l 41 -123 q 37 -143 37 -131 q 50 -174 37 -161 q 80 -187 62 -187 q 119 -162 108 -187 "},"f":{"x_min":15.28125,"x_max":369.46875,"ha":351,"o":"m 347 979 q 363 988 358 982 q 369 1012 369 995 q 353 1040 369 1029 q 315 1051 337 1051 l 262 1051 q 165 1011 201 1051 q 130 911 130 972 l 130 711 q 100 711 111 711 q 80 712 90 712 q 61 712 70 712 q 45 709 52 712 q 22 700 30 707 q 15 676 15 693 q 22 649 15 657 q 44 638 30 641 q 59 636 51 636 q 79 636 68 636 q 100 636 88 636 q 131 637 112 637 l 131 -295 l 219 -295 l 219 637 q 250 636 238 637 q 273 636 262 636 q 295 635 284 636 q 318 637 306 634 q 361 673 361 641 q 350 700 361 691 q 318 711 338 708 q 295 713 306 713 q 273 712 284 712 q 250 711 262 712 q 219 711 238 711 l 219 918 q 243 963 219 951 q 288 975 268 975 q 318 975 302 975 q 347 979 334 975 "},"“":{"x_min":18.0625,"x_max":425.03125,"ha":472,"o":"m 308 726 l 425 962 l 343 1001 l 230 765 q 226 745 226 757 q 238 714 226 727 q 269 701 251 701 q 308 726 297 701 m 100 726 l 216 962 l 134 1001 l 22 764 q 18 745 18 756 q 30 714 18 727 q 61 701 43 701 q 100 726 88 701 "},"A":{"x_min":29.171875,"x_max":847.296875,"ha":858,"o":"m 757 -11 l 847 15 l 504 915 q 475 965 490 950 q 425 980 459 980 q 381 962 397 980 q 354 915 365 944 l 34 55 q 29 27 29 43 q 40 -2 29 9 q 70 -13 52 -13 q 96 -5 84 -13 q 113 18 108 2 l 187 215 l 670 215 l 757 -11 m 429 895 l 647 290 l 209 290 l 429 895 "},"6":{"x_min":94.453125,"x_max":661.15625,"ha":756,"o":"m 373 -16 q 493 9 440 -16 q 584 80 547 36 q 641 183 622 125 q 661 306 661 241 q 643 422 661 366 q 593 519 626 477 q 511 586 559 561 q 400 611 462 611 q 329 599 368 611 q 227 548 291 587 q 276 636 254 598 q 316 701 298 673 q 351 751 334 729 q 384 793 368 773 q 450 865 415 829 q 529 945 484 901 q 495 966 513 954 q 465 987 477 977 q 438 962 451 975 q 411 938 425 950 q 379 909 394 923 q 350 880 363 895 q 252 757 298 822 q 170 622 205 693 q 115 477 136 552 q 94 325 94 402 q 112 198 94 259 q 165 89 130 137 q 252 12 200 41 q 373 -16 304 -16 m 375 541 q 463 519 426 541 q 522 461 500 497 q 556 383 545 426 q 566 298 566 340 q 555 215 566 256 q 521 140 544 173 q 461 86 498 106 q 375 66 425 66 q 286 89 322 66 q 229 147 251 112 q 197 226 206 183 q 188 309 188 269 q 198 392 188 351 q 230 466 208 433 q 288 520 252 500 q 375 541 323 541 "},"‘":{"x_min":18.0625,"x_max":216.6875,"ha":268,"o":"m 100 726 l 216 962 l 134 1001 l 22 764 q 18 745 18 756 q 30 714 18 727 q 61 701 43 701 q 100 726 88 701 "},"O":{"x_min":66.671875,"x_max":908.40625,"ha":975,"o":"m 487 -13 q 668 28 588 -13 q 800 139 747 70 q 880 298 852 207 q 908 484 908 388 q 881 669 908 580 q 800 828 854 759 q 668 939 747 898 q 488 981 590 981 q 307 940 386 981 q 175 830 229 899 q 94 672 122 762 q 66 485 66 582 q 93 299 66 389 q 174 139 120 209 q 306 28 227 70 q 487 -13 384 -13 m 483 907 q 638 867 576 907 q 738 764 701 827 q 792 624 776 701 q 808 472 808 547 q 790 325 808 398 q 733 193 772 252 q 632 97 694 134 q 483 61 570 61 q 335 101 395 61 q 237 203 275 141 q 184 340 200 265 q 168 484 168 415 q 184 629 168 554 q 237 766 200 704 q 335 867 275 827 q 483 907 395 907 "},"n":{"x_min":104.171875,"x_max":657,"ha":761,"o":"m 612 -15 q 644 -2 632 -15 q 657 29 657 9 l 657 455 q 638 562 657 513 q 587 646 620 611 q 506 701 554 682 q 401 720 459 720 q 347 716 375 720 q 294 698 320 711 q 241 663 268 686 q 190 602 215 640 l 190 672 q 186 700 190 687 q 175 717 183 711 q 150 723 168 723 q 117 711 130 723 q 104 679 104 698 l 104 -1 l 190 -1 l 190 456 q 204 530 190 495 q 245 591 219 565 q 304 633 270 618 q 379 648 338 648 q 453 633 418 648 q 514 591 488 618 q 555 528 540 563 q 570 454 570 493 l 570 27 q 582 -2 570 9 q 612 -15 594 -15 "},"3":{"x_min":91.578125,"x_max":664,"ha":756,"o":"m 146 826 l 149 826 q 160 821 155 822 q 176 813 164 818 q 202 801 188 808 q 214 795 209 798 q 223 789 220 791 q 273 870 238 837 q 366 903 308 903 q 427 888 399 903 q 474 850 455 873 q 504 798 494 827 q 515 737 515 768 q 505 661 515 691 q 482 610 496 630 q 448 578 467 590 q 409 559 428 566 q 390 554 399 556 q 373 548 381 551 q 359 544 366 545 q 345 540 352 542 q 329 528 334 534 q 324 511 324 522 q 330 488 324 499 q 338 477 333 481 q 351 470 344 473 q 370 467 360 467 q 388 465 380 466 q 519 406 470 454 q 568 270 568 358 q 552 189 568 226 q 508 125 536 152 q 443 83 480 98 q 363 69 406 69 q 301 78 327 69 q 255 100 274 87 q 222 132 236 114 q 198 167 208 149 q 188 185 192 177 q 180 202 184 194 q 165 228 173 217 q 133 250 151 250 q 104 237 116 250 q 91 205 91 223 q 95 178 91 191 q 105 150 98 166 q 207 30 137 74 q 361 -14 277 -14 q 478 8 423 -14 q 574 69 533 30 q 640 162 616 108 q 664 279 664 216 q 618 418 664 354 q 480 518 572 483 q 577 624 548 567 q 607 743 607 680 q 588 837 607 793 q 539 913 570 881 q 465 965 508 946 q 371 984 421 984 q 233 942 291 984 q 146 826 174 901 "},"9":{"x_min":95,"x_max":661,"ha":756,"o":"m 376 53 q 484 181 432 113 q 574 324 536 249 q 637 478 613 398 q 661 641 661 558 q 642 768 661 707 q 589 878 624 830 q 502 955 554 926 q 380 985 450 985 q 258 957 311 985 q 168 884 204 930 q 113 778 132 839 q 95 651 95 718 q 113 538 95 593 q 164 443 131 484 q 245 378 197 402 q 354 354 293 354 q 425 366 387 354 q 525 417 462 379 q 427 247 473 315 q 329 126 380 180 q 314 111 328 124 q 286 82 301 98 q 265 62 275 71 q 251 48 255 53 l 315 -13 q 340 14 323 -1 q 363 39 353 28 q 376 53 373 50 m 380 902 q 464 880 429 902 q 522 824 499 858 q 556 749 545 790 q 568 668 568 707 q 558 583 568 626 q 528 504 549 540 q 470 447 506 469 q 380 425 434 425 q 291 447 327 425 q 232 504 255 469 q 199 582 209 539 q 189 668 189 626 q 200 751 189 710 q 234 826 211 793 q 293 881 257 860 q 380 902 329 902 "},"l":{"x_min":104.171875,"x_max":190.296875,"ha":294,"o":"m 104 -2 l 190 -1 l 190 1007 q 178 1039 190 1026 q 147 1052 166 1052 q 115 1039 127 1052 q 104 1007 104 1026 l 104 -2 "},"¤":{"x_min":-13.890625,"x_max":847.296875,"ha":846,"o":"m 568 343 q 592 351 583 343 q 601 373 601 360 q 591 394 601 385 q 568 403 581 403 l 223 403 q 219 443 220 422 q 218 483 218 464 q 218 499 218 492 q 219 516 218 507 l 594 516 l 594 579 l 226 579 q 259 698 236 640 q 322 801 283 755 q 416 874 361 846 q 543 902 470 902 q 615 895 583 902 q 674 874 647 888 q 726 840 701 860 q 776 795 751 820 l 826 840 q 773 901 807 875 q 700 946 740 928 q 618 975 661 965 q 537 985 576 985 q 372 953 444 985 q 250 866 301 921 q 170 736 200 811 q 129 579 140 662 l 19 579 q -4 569 5 579 q -13 548 -13 560 q -4 525 -13 534 q 18 516 4 516 l 123 516 q 122 495 122 504 q 122 474 122 485 q 126 403 122 437 l -6 403 l -8 343 l 136 343 q 187 202 152 267 q 275 89 222 137 q 397 13 327 41 q 552 -14 466 -14 q 679 0 615 -14 q 794 48 743 15 q 829 74 811 59 q 847 112 847 88 q 836 144 847 131 q 808 156 825 156 q 779 144 801 156 q 755 129 768 137 q 727 113 743 122 q 655 81 697 95 q 555 68 613 68 q 434 90 487 68 q 342 149 381 112 q 276 237 302 187 q 236 343 250 287 l 568 343 "},"":{"x_min":0,"x_max":809.78125,"ha":763,"o":"m 734 1061 l 809 1061 l 809 1095 l 707 1095 l 345 120 l 162 626 l 0 569 l 6 544 l 91 575 l 309 -27 l 331 -27 l 734 1061 "},"4":{"x_min":51.390625,"x_max":698.671875,"ha":756,"o":"m 669 263 q 698 297 698 270 q 669 331 698 325 q 637 336 654 336 l 588 336 l 588 883 q 566 954 588 926 q 501 983 543 983 q 456 970 477 983 q 422 937 434 958 l 72 345 q 59 322 66 336 q 51 297 51 308 q 57 272 51 280 q 74 261 63 265 q 97 258 84 258 q 122 258 109 258 l 502 258 l 502 -2 l 586 -2 l 586 259 l 634 259 q 669 263 652 259 m 501 919 l 501 336 l 156 336 l 501 919 "},"p":{"x_min":104.171875,"x_max":719.5,"ha":786,"o":"m 416 -13 q 547 18 491 -13 q 642 104 604 51 q 700 225 680 156 q 719 362 719 293 q 699 494 719 429 q 641 610 679 559 q 547 692 602 661 q 420 723 491 723 q 300 690 358 723 q 188 573 243 657 l 188 662 q 188 679 188 672 q 186 694 187 687 q 173 714 181 707 q 144 722 165 722 q 116 708 129 722 q 104 676 104 694 l 104 -294 l 190 -294 l 190 123 q 302 16 245 47 q 416 -13 358 -13 m 409 650 q 511 620 469 650 q 578 547 552 591 q 615 450 604 502 q 626 352 626 398 q 613 253 626 304 q 575 159 601 202 q 506 89 548 116 q 404 62 463 62 q 301 88 343 62 q 233 156 259 115 q 195 249 206 198 q 184 348 184 300 q 188 426 184 387 q 205 502 193 465 q 241 569 218 538 q 305 622 265 600 q 355 642 329 634 q 409 650 381 650 "},"‡":{"x_min":69.453125,"x_max":833.40625,"ha":901,"o":"m 786 538 q 819 551 805 538 q 833 581 833 563 q 820 610 833 598 q 787 622 807 622 l 491 622 l 491 933 l 409 934 l 406 623 l 113 623 q 84 611 97 623 q 72 583 72 598 q 84 552 72 565 q 115 538 97 538 l 405 538 l 406 127 l 112 126 q 81 114 94 126 q 69 84 69 102 q 81 55 69 68 q 112 43 94 43 l 406 43 l 408 -268 q 420 -300 408 -287 q 450 -312 431 -312 q 479 -300 468 -312 q 490 -268 490 -287 l 490 43 l 786 43 q 818 54 805 43 q 830 84 830 66 q 817 114 830 101 q 786 127 804 127 l 493 126 l 493 538 l 786 538 "},"à":{"x_min":65.28125,"x_max":683.390625,"ha":788,"o":"m 491 800 q 520 811 509 800 q 531 837 531 822 q 504 877 531 866 q 458 896 488 883 q 393 923 427 909 q 329 947 356 938 q 290 957 301 957 q 262 945 273 957 q 251 919 251 934 q 279 879 251 890 q 325 860 294 873 q 390 833 355 847 q 454 809 426 819 q 491 800 481 800 m 595 -5 l 683 -5 l 683 679 q 670 709 683 695 q 643 722 658 722 q 613 716 622 722 q 602 700 605 709 q 597 673 600 691 l 597 595 q 485 694 540 666 q 372 722 430 722 q 243 691 300 722 q 146 608 186 659 q 86 491 106 556 q 65 356 65 425 q 85 220 65 286 q 144 102 105 154 q 240 18 183 50 q 372 -12 297 -12 q 488 20 433 -12 q 595 141 543 54 l 595 -5 m 386 651 q 491 625 450 651 q 556 557 531 598 q 590 466 580 516 q 600 366 600 415 q 591 260 600 315 q 558 161 581 205 q 491 87 534 116 q 379 58 447 58 q 274 86 316 58 q 206 159 231 115 q 170 256 180 204 q 159 358 159 309 q 171 459 159 406 q 210 553 183 511 q 280 623 237 595 q 386 651 323 651 "},"Ü":{"x_min":104.171875,"x_max":844.515625,"ha":949,"o":"m 584 950 q 624 966 608 950 q 640 1005 640 982 q 624 1045 640 1029 q 584 1061 608 1061 q 545 1045 561 1061 q 530 1005 530 1029 q 546 966 530 982 q 584 950 562 950 m 362 950 q 402 966 386 950 q 418 1007 418 983 q 402 1045 418 1029 q 363 1062 387 1062 q 324 1046 340 1062 q 308 1007 308 1030 q 323 966 308 983 q 362 950 338 950 m 475 -13 q 622 11 554 -13 q 739 81 690 36 q 816 193 788 127 q 844 338 844 258 l 844 933 q 831 966 844 952 q 800 979 818 979 q 768 966 780 979 q 755 933 755 952 l 755 337 q 734 223 755 275 q 677 136 713 172 q 588 79 640 100 q 475 59 537 59 q 360 79 412 59 q 270 135 308 98 q 213 223 233 172 q 193 337 193 275 l 193 973 l 104 973 l 104 338 q 131 193 104 258 q 209 81 159 127 q 326 11 258 36 q 475 -13 394 -13 "},"ó":{"x_min":66.671875,"x_max":691.71875,"ha":760,"o":"m 493 877 q 513 894 505 883 q 520 918 520 905 q 509 945 520 934 q 480 957 498 957 q 443 947 470 957 q 379 923 415 937 q 313 897 344 909 q 268 877 283 884 q 248 861 256 873 q 240 837 240 850 q 252 809 240 820 q 281 798 263 798 q 319 808 291 798 q 383 832 347 818 q 447 859 416 845 q 493 877 477 872 m 380 -15 q 511 16 454 -15 q 609 100 569 48 q 670 219 650 152 q 691 355 691 286 q 670 491 691 425 q 608 608 648 556 q 510 691 568 659 q 379 722 452 722 q 247 691 305 722 q 150 609 190 659 q 88 492 109 558 q 66 356 66 426 q 87 218 66 286 q 148 99 108 151 q 247 15 188 47 q 380 -15 305 -15 m 377 648 q 481 620 438 648 q 549 550 523 593 q 586 456 575 508 q 598 356 598 404 q 587 256 598 308 q 550 160 576 204 q 481 88 523 116 q 376 59 438 59 q 275 88 316 59 q 209 161 234 118 q 172 257 183 205 q 161 355 161 309 q 172 452 161 401 q 210 547 184 504 q 277 620 236 591 q 377 648 318 648 "},"\u001a":{"x_min":141.671875,"x_max":613.9375,"ha":757,"o":"m 581 102 q 604 111 595 102 q 613 133 613 120 q 604 155 613 147 l 423 336 l 604 516 q 613 539 613 525 q 604 561 613 552 q 583 571 595 571 q 559 559 570 571 l 379 380 l 198 561 l 154 519 l 336 337 l 151 152 q 141 130 141 143 q 151 109 141 118 q 173 100 161 100 q 194 108 186 100 l 379 291 l 558 112 q 581 102 568 102 "},"\r":{"x_min":105.5625,"x_max":191.6875,"ha":297,"o":"m 105 -1 l 191 -1 l 191 679 q 179 709 191 695 q 151 722 166 722 q 118 710 131 722 q 105 679 105 698 l 105 -1 "}}}
